<?xml version="1.0" encoding="utf-8"?>
<!-- Generator: Adobe Illustrator 22.0.1, SVG Export Plug-In . SVG Version: 6.00 Build 0)  -->
<svg version="1.1" id="Layer_1" xmlns="http://www.w3.org/2000/svg" xmlns:xlink="http://www.w3.org/1999/xlink" x="0px" y="0px"
	 viewBox="0 0 512 512" style="enable-background:new 0 0 512 512;" xml:space="preserve">
<style type="text/css">
	.st0{fill:#CA454A;}
</style>
<path class="st0" d="M105,286h61c8.3,0,15-6.7,15-15s-6.7-15-15-15h-61c-8.3,0-15,6.7-15,15S96.7,286,105,286z"/>
<path class="st0" d="M452,316V211c0-8.3-6.7-15-15-15c-14,0-146.7,0-165,0v-30h15c8.3,0,15-6.7,15-15V91c0-8.3-6.7-15-15-15H15
	C6.7,76,0,82.7,0,91v60c0,8.3,6.7,15,15,15h15v158.1C12.1,334.5,0,353.8,0,376c0,33.1,26.9,60,60,60h392c33.1,0,60-26.9,60-60
	S485.1,316,452,316z M332,226h30v30h-30V226z M302,226v45c0,8.3,6.7,15,15,15h60c8.3,0,15-6.7,15-15v-45h30v90H272v-90H302z M30,106
	h242v30c-8.3,0-232.9,0-242,0V106z M242,166v150H60V166H242z M60,406c-16.5,0-30-13.5-30-30s13.5-30,30-30s30,13.5,30,30
	S76.5,406,60,406z M205.1,406h-93.1c5.1-8.8,8.1-19.1,8.1-30s-2.9-21.2-8.1-30h93.1c-5.1,8.8-8.1,19.1-8.1,30S199.9,397.2,205.1,406
	z M257,406c-16.5,0-30-13.5-30-30s13.5-30,30-30s30,13.5,30,30S273.5,406,257,406z M400.1,406h-91.1c5.1-8.8,8.1-19.1,8.1-30
	s-2.9-21.2-8.1-30h91.1c-5.1,8.8-8.1,19.1-8.1,30S394.9,397.2,400.1,406z M452,406c-16.5,0-30-13.5-30-30s13.5-30,30-30
	s30,13.5,30,30S468.5,406,452,406z"/>
</svg>
