<?xml version="1.0" encoding="utf-8"?>
<!-- Generator: Adobe Illustrator 22.0.1, SVG Export Plug-In . SVG Version: 6.00 Build 0)  -->
<svg version="1.1" id="Layer_1" xmlns="http://www.w3.org/2000/svg" xmlns:xlink="http://www.w3.org/1999/xlink" x="0px" y="0px"
	 viewBox="0 0 512 512" style="enable-background:new 0 0 512 512;" xml:space="preserve">
<style type="text/css">
	.st0{fill:#CA454A;}
</style>
<path class="st0" d="M511.9,166.7c0-42.7-16.3-85.4-48.8-117.9C431.7,17.3,389.8,0,345.2,0s-86.4,17.3-117.9,48.8L26.6,313.2
	c-38.3,48.1-35.2,118.4,9.3,162.9c23.9,23.9,55.3,35.8,86.6,35.8c0.7,0,1.4,0,2.1,0v0.1h313.9v0c40.1-1,72.5-33.4,73.5-73.5h0
	L511.9,166.7L511.9,166.7z M248.6,70.1c25.8-25.8,60.2-40,96.7-40s70.9,14.2,96.7,40c53.3,53.3,53.3,140,0,193.4
	c-25.8,25.8-60.2,40-96.7,40s-70.9-14.2-96.7-40C195.2,210.1,195.2,123.4,248.6,70.1z M57.1,454.9c-36.1-36.1-36.1-94.8,0-130.8
	c18-18,41.7-27.1,65.4-27.1c23.7,0,47.4,9,65.4,27.1c36.1,36.1,36.1,94.8,0,130.8C151.8,491,93.1,491,57.1,454.9z M436.6,482
	c-25,0-45.4-20.3-45.4-45.4s20.4-45.4,45.4-45.4c25,0,45.4,20.3,45.4,45.4S461.6,482,436.6,482z M482,376.5
	c-12.6-9.5-28.3-15.2-45.4-15.2c-41.6,0-75.4,33.8-75.4,75.4c0,17,5.7,32.7,15.2,45.4H202.8c2.2-1.9,4.3-3.8,6.3-5.9
	c47.8-47.8,47.8-125.5,0-173.3c-30.3-30.3-72.8-41.4-111.9-33.2L178.6,162c-1.3,44.3,15,89,48.7,122.7
	c31.5,31.5,73.4,48.8,117.9,48.8c44.5,0,86.4-17.3,117.9-48.8c7-7,13.3-14.6,18.8-22.4V376.5z"/>
<path class="st0" d="M268.9,166.8v-0.1c0-13.4,3.5-26.6,10.2-38.1c4.1-7.2,1.7-16.4-5.5-20.5c-7.2-4.1-16.4-1.7-20.5,5.5
	c-9.3,16.1-14.2,34.4-14.2,53.1v0.1c0,8.3,6.7,15,15,15C262.2,181.9,268.9,175.1,268.9,166.8z"/>
<path class="st0" d="M383.4,232.9c-11.5,6.7-24.7,10.2-38.2,10.2c-8.3,0-15,6.7-15,15c0,8.3,6.7,15,15,15h0
	c18.7,0,37.1-4.9,53.2-14.3c7.2-4.2,9.6-13.3,5.5-20.5C399.8,231.2,390.6,228.7,383.4,232.9z"/>
<path class="st0" d="M307.1,232.9c-11.6-6.7-21.3-16.4-28-27.9c-4.2-7.2-13.3-9.6-20.5-5.5s-9.6,13.3-5.5,20.5
	c9.3,16.1,22.8,29.6,38.9,38.9c2.4,1.4,4.9,2,7.5,2c5.2,0,10.2-2.7,13-7.5C316.8,246.2,314.3,237.1,307.1,232.9z"/>
<path class="st0" d="M421.6,166.5v0.2c0,13.4-3.5,26.6-10.2,38.2c-4.1,7.2-1.7,16.4,5.5,20.5c2.4,1.4,4.9,2,7.5,2
	c5.2,0,10.2-2.7,13-7.5c9.3-16.1,14.2-34.5,14.2-53.2v-0.2c0-8.3-6.7-15-15-15C428.3,151.5,421.6,158.2,421.6,166.5z"/>
<path class="st0" d="M299.4,102.7c2.6,0,5.2-0.7,7.5-2c11.5-6.7,24.7-10.2,38.1-10.3c8.3,0,15-6.7,15-15c0-8.3-6.7-15-15-15
	c0,0,0,0,0,0c-18.7,0-37.1,5-53.2,14.3c-7.2,4.2-9.6,13.3-5.4,20.5C289.2,100,294.3,102.7,299.4,102.7z"/>
<path class="st0" d="M383.3,100.5c11.6,6.7,21.3,16.3,28,27.9c2.8,4.8,7.8,7.5,13,7.5c2.6,0,5.2-0.7,7.5-2
	c7.2-4.2,9.6-13.4,5.4-20.5c-9.4-16.1-22.8-29.5-39-38.8c-7.2-4.1-16.4-1.7-20.5,5.5C373.6,87.2,376.1,96.4,383.3,100.5z"/>
<path class="st0" d="M345.2,214.3c26.3,0,47.6-21.4,47.6-47.6c0-26.3-21.4-47.6-47.6-47.6s-47.6,21.4-47.6,47.6
	C297.6,193,319,214.3,345.2,214.3z M345.2,149.1c9.7,0,17.6,7.9,17.6,17.6c0,9.7-7.9,17.6-17.6,17.6s-17.6-7.9-17.6-17.6
	C327.6,157,335.5,149.1,345.2,149.1z"/>
<path class="st0" d="M122.5,341.9c-26.3,0-47.6,21.4-47.6,47.6c0,26.3,21.4,47.6,47.6,47.6s47.6-21.4,47.6-47.6
	C170.1,363.2,148.7,341.9,122.5,341.9z M122.5,407.1c-9.7,0-17.6-7.9-17.6-17.6c0-9.7,7.9-17.6,17.6-17.6s17.6,7.9,17.6,17.6
	C140.1,399.2,132.2,407.1,122.5,407.1z"/>
<path class="st0" d="M436.6,416.6c-8.3,0-15,6.7-15,15v10c0,8.3,6.7,15,15,15c8.3,0,15-6.7,15-15v-10
	C451.6,423.3,444.9,416.6,436.6,416.6z"/>
</svg>
