<?xml version="1.0" encoding="utf-8"?>
<!-- Generator: Adobe Illustrator 22.0.1, SVG Export Plug-In . SVG Version: 6.00 Build 0)  -->
<svg version="1.1" id="Layer_1" xmlns="http://www.w3.org/2000/svg" xmlns:xlink="http://www.w3.org/1999/xlink" x="0px" y="0px"
	 viewBox="0 0 512 512" style="enable-background:new 0 0 512 512;" xml:space="preserve">
<style type="text/css">
	.st0{fill:#CA454A;}
</style>
<path class="st0" d="M421,0C408,0,112,0,91,0C57.9,0,31,26.9,31,60v105c0,8.3,6.7,15,15,15h75v257c0,8.3,6.7,15,15,15h150v45
	c0,5.5,3,10.6,7.9,13.2c4.9,2.6,10.8,2.3,15.4-0.7L346,485l36.7,24.5c4.6,3.1,10.5,3.4,15.4,0.7c4.9-2.6,7.9-7.7,7.9-13.2v-45h60
	c8.3,0,15-6.7,15-15V60C481,26.9,454.1,0,421,0z M61,60c0-16.5,13.5-30,30-30s30,13.5,30,30v90H61V60z M346,392
	c-24.8,0-45-20.2-45-45c0-24.9,20.6-46,45-46s45,21.1,45,46C391,371.8,370.8,392,346,392z M376,469l-21.7-14.5
	c-5-3.4-11.6-3.4-16.6,0L316,469v-53.3c9.2,4,19.3,6.3,30,6.3s20.8-2.3,30-6.3V469z M451,422h-45v-30.1c9.4-12.5,15-28.1,15-44.9
	c0-20-7.8-39-21.8-53.4C384.9,279,366,271,346,271s-38.9,8-53.2,22.6C278.8,308,271,327,271,347c0,16.8,5.6,32.4,15,44.9V422H151
	c0-16.1,0-344,0-362c0-10.9-2.9-21.2-8.1-30H421c16.5,0,30,13.5,30,30V422z"/>
<path class="st0" d="M406,90H196c-8.3,0-15,6.7-15,15s6.7,15,15,15h210c8.3,0,15-6.7,15-15S414.3,90,406,90z"/>
<path class="st0" d="M406,150H196c-8.3,0-15,6.7-15,15s6.7,15,15,15h210c8.3,0,15-6.7,15-15S414.3,150,406,150z"/>
<path class="st0" d="M406,210H196c-8.3,0-15,6.7-15,15s6.7,15,15,15h210c8.3,0,15-6.7,15-15S414.3,210,406,210z"/>
</svg>
