<?xml version="1.0" encoding="utf-8"?>
<!-- Generator: Adobe Illustrator 22.0.1, SVG Export Plug-In . SVG Version: 6.00 Build 0)  -->
<svg version="1.1" id="Capa_1" xmlns="http://www.w3.org/2000/svg" xmlns:xlink="http://www.w3.org/1999/xlink" x="0px" y="0px"
	 viewBox="0 0 512 512" style="enable-background:new 0 0 512 512;" xml:space="preserve">
<style type="text/css">
	.st0{fill:#CA454A;}
</style>
<g>
	<path class="st0" d="M497,360h-46V195c0-8.3-6.7-15-15-15h-75V15c0-8.3-6.7-15-15-15H166c-8.3,0-15,6.7-15,15v165H76
		c-8.3,0-15,6.7-15,15v165H15c-8.3,0-15,6.7-15,15v60c0,8.3,6.7,15,15,15h16v47c0,8.3,6.7,15,15,15h60c8.3,0,15-6.7,15-15v-47h90v47
		c0,8.3,6.7,15,15,15h60c8.3,0,15-6.7,15-15v-47h90v47c0,8.3,6.7,15,15,15h60c8.3,0,15-6.7,15-15v-47h16c8.3,0,15-6.7,15-15v-60
		C512,366.7,505.3,360,497,360z M421,360H271V210h30v55c0,5.5,3,10.6,7.9,13.2s10.8,2.3,15.4-0.7L346,263l21.7,14.5
		c2.5,1.7,5.4,2.5,8.3,2.5c2.4,0,4.9-0.6,7.1-1.8c4.9-2.6,7.9-7.7,7.9-13.2v-55h30V360z M361,210v27l-6.7-4.5
		c-2.5-1.7-5.4-2.5-8.3-2.5s-5.8,0.8-8.3,2.5L331,237v-27H361z M271,30v27l-6.7-4.5c-2.5-1.7-5.4-2.5-8.3-2.5s-5.8,0.8-8.3,2.5
		L241,57V30H271z M181,30h30v55c0,5.5,3,10.6,7.9,13.2c4.9,2.6,10.8,2.3,15.4-0.7L256,83l21.7,14.5c2.5,1.7,5.4,2.5,8.3,2.5
		c2.4,0,4.9-0.6,7.1-1.8c4.9-2.6,7.9-7.7,7.9-13.2V30h30v150H181V30z M181,210v27l-6.7-4.5c-2.5-1.7-5.4-2.5-8.3-2.5
		s-5.8,0.8-8.3,2.5L151,237v-27H181z M91,210h30v55c0,5.5,3,10.6,7.9,13.2s10.8,2.3,15.4-0.7L166,263l21.7,14.5
		c2.5,1.7,5.4,2.5,8.3,2.5c2.4,0,4.9-0.6,7.1-1.8c4.9-2.6,7.9-7.7,7.9-13.2v-55h30v150H91L91,210z M91,482H61v-32h30V482z M271,482
		h-30v-32h30V482z M451,482h-30v-32h30V482z M482,420H30v-30h452V420z"/>
</g>
</svg>
