<?xml version="1.0" encoding="utf-8"?>
<!-- Generator: Adobe Illustrator 22.0.1, SVG Export Plug-In . SVG Version: 6.00 Build 0)  -->
<svg version="1.1" id="Layer_1" xmlns="http://www.w3.org/2000/svg" xmlns:xlink="http://www.w3.org/1999/xlink" x="0px" y="0px"
	 viewBox="0 0 511 511" style="enable-background:new 0 0 511 511;" xml:space="preserve">
<style type="text/css">
	.st0{fill:#CA454A;}
</style>
<path class="st0" d="M450.3,16.8l-43.6,17.4c-31.5,12.5-66.4,10.2-95.9-6.5L263.7,1c-4.7-2.7-10.4-2.7-15.1,0l-47.1,26.7
	c-29.5,16.7-64.4,19.1-95.9,6.5L62,16.8c-10.1-4-21,3.4-21,14.3v263.7C40.9,413,136.8,510,256.1,510c119.3,0,215.2-97,215.2-215.2
	V31.1C471.3,20.2,460.4,12.8,450.3,16.8z M440.6,294.8c0,100.3-80.8,184.3-184.5,184.3c-103.5,0-184.5-83.8-184.5-184.3V53.7l22.5,9
	c40.2,16,84.8,13,122.4-8.3L256.1,32l39.6,22.4c37.6,21.3,82.2,24.3,122.4,8.3l22.5-9V294.8z"/>
<path class="st0" d="M397.9,214H370c-1.4-3.9-3-7.8-4.8-11.6l19.8-19.8c6-6,6-15.7,0-21.7l-35.4-35.4c-6-6-15.7-6-21.7,0l-19.8,19.8
	c-3.8-1.8-7.6-3.4-11.6-4.8v-27.9c0-8.5-6.9-15.4-15.4-15.4h-50.1c-8.5,0-15.4,6.9-15.4,15.4v27.9c-3.9,1.4-7.8,3-11.6,4.8
	l-19.8-19.8c-6-6-15.7-6-21.7,0L127.3,161c-6,6-6,15.7,0,21.7l19.8,19.8c-1.8,3.8-3.4,7.6-4.8,11.6h-27.9c-8.5,0-15.4,6.9-15.4,15.4
	v50.1c0,8.5,6.9,15.4,15.4,15.4h27.9c1.4,3.9,3,7.8,4.8,11.6l-19.8,19.8c-6,6-6,15.7,0,21.7l35.4,35.4c6,6,15.7,6,21.7,0l19.8-19.8
	c3.8,1.8,7.6,3.4,11.6,4.8v27.9c0,8.5,6.9,15.4,15.4,15.4h50.1c8.5,0,15.4-6.9,15.4-15.4v-27.9c3.9-1.4,7.8-3,11.6-4.8l19.8,19.8
	c6,6,15.7,6,21.7,0l35.4-35.4c6-6,6-15.7,0-21.7l-19.8-19.8c1.8-3.8,3.4-7.6,4.8-11.6h27.9c8.5,0,15.4-6.9,15.4-15.4v-50.1
	C413.3,220.9,406.4,214,397.9,214z M382.6,264.1h-24c-7.1,0-13.2,4.8-14.9,11.7c-2.2,9-5.7,17.5-10.5,25.4
	c-3.7,6.1-2.7,13.8,2.3,18.8l17,17l-13.7,13.7l-17-17c-5-5-12.8-5.9-18.8-2.3c-7.9,4.8-16.4,8.3-25.4,10.5
	c-6.9,1.7-11.7,7.8-11.7,14.9v24h-19.3v-24c0-7.1-4.8-13.2-11.7-14.9c-9-2.2-17.5-5.7-25.4-10.5c-6-3.7-13.8-2.7-18.8,2.3l-17,17
	L159.9,337l17-17c5-5,5.9-12.8,2.3-18.8c-4.8-7.9-8.3-16.4-10.5-25.4c-1.7-6.9-7.8-11.7-14.9-11.7h-24v-19.3h24
	c7.1,0,13.2-4.8,14.9-11.7c2.2-9,5.7-17.5,10.5-25.4c3.7-6.1,2.7-13.8-2.3-18.8l-17-17l13.7-13.7l17,17c5,5,12.8,5.9,18.8,2.3
	c7.9-4.8,16.4-8.3,25.4-10.5c6.9-1.7,11.7-7.8,11.7-14.9v-24h19.3v24c0,7.1,4.8,13.2,11.7,14.9c9,2.2,17.5,5.7,25.4,10.5
	c6.1,3.7,13.8,2.7,18.8-2.3l17-17l13.7,13.7l-17,17c-5,5-5.9,12.8-2.3,18.8c4.8,7.9,8.3,16.4,10.5,25.4c1.7,6.9,7.8,11.7,14.9,11.7
	h24V264.1z"/>
<path class="st0" d="M256.1,186c-37.7,0-68.4,30.7-68.4,68.4s30.7,68.4,68.4,68.4c37.7,0,68.4-30.7,68.4-68.4S293.8,186,256.1,186z
	 M256.1,292.1c-20.8,0-37.7-16.9-37.7-37.7c0-20.8,16.9-37.7,37.7-37.7c20.8,0,37.7,16.9,37.7,37.7
	C293.8,275.2,276.9,292.1,256.1,292.1z"/>
</svg>
