<?xml version="1.0" encoding="utf-8"?>
<!-- Generator: Adobe Illustrator 22.0.1, SVG Export Plug-In . SVG Version: 6.00 Build 0)  -->
<svg version="1.1" id="Capa_1" xmlns="http://www.w3.org/2000/svg" xmlns:xlink="http://www.w3.org/1999/xlink" x="0px" y="0px"
	 viewBox="0 0 512 512" style="enable-background:new 0 0 512 512;" xml:space="preserve">
<style type="text/css">
	.st0{fill:#CA454A;}
</style>
<g>
	<path class="st0" d="M135,290H75c-8.3,0-15,6.7-15,15s6.7,15,15,15h60c8.3,0,15-6.7,15-15S143.3,290,135,290z"/>
	<path class="st0" d="M135,230H75c-8.3,0-15,6.7-15,15s6.7,15,15,15h60c8.3,0,15-6.7,15-15S143.3,230,135,230z"/>
	<path class="st0" d="M428.8,328.1l-46,46l-17.7-17.7c-5.9-5.9-15.4-5.9-21.2,0s-5.9,15.4,0,21.2l28.3,28.3
		c2.9,2.9,6.8,4.4,10.6,4.4s7.7-1.5,10.6-4.4l56.6-56.6c5.9-5.9,5.9-15.4,0-21.2C444.2,322.3,434.7,322.3,428.8,328.1L428.8,328.1z"
		/>
	<path class="st0" d="M497,262c-19,0-36-10.5-44.5-27.5l-2.1-4.2c-2.5-5.1-7.7-8.3-13.4-8.3h-7V95c0-2.3-0.5-4.6-1.6-6.7l-40-80
		C385.9,3.2,380.7,0,375,0H55c-5.7,0-10.9,3.2-13.4,8.3l-40,80C0.5,90.4,0,92.7,0,95v260c0,8.3,6.7,15,15,15h267.2
		c1.4,30.9,11.9,60.3,30.5,85.3c20.1,27,47.7,46.4,80,56.1c1.4,0.4,2.9,0.6,4.3,0.6s2.9-0.2,4.3-0.6c32.2-9.7,59.9-29.1,80-56.1
		c20.1-27,30.7-59.1,30.7-92.7V277C512,268.7,505.3,262,497,262z M390.7,80H260V30h105.7L390.7,80z M200,110h30v70h-30V110z M230,30
		v50h-30V30H230z M64.3,30H170v50H39.3L64.3,30z M282,277v63H30V110h140v85c0,8.3,6.7,15,15,15h60c8.3,0,15-6.7,15-15v-85h140v112
		h-43c-5.7,0-10.9,3.2-13.4,8.3l-2.1,4.2C333,251.5,316,262,297,262C288.7,262,282,268.7,282,277z M482,362.6
		c0,54.3-34,101.4-85,118.7c-51-17.3-85-64.4-85-118.7v-72c22.7-4.3,42.4-18.2,54.1-38.6h61.8c11.7,20.4,31.4,34.3,54.1,38.6V362.6z
		"/>
</g>
</svg>
