<?xml version="1.0" encoding="utf-8"?>
<!-- Generator: Adobe Illustrator 22.0.1, SVG Export Plug-In . SVG Version: 6.00 Build 0)  -->
<svg version="1.1" id="Capa_1" xmlns="http://www.w3.org/2000/svg" xmlns:xlink="http://www.w3.org/1999/xlink" x="0px" y="0px"
	 viewBox="0 0 512 512" style="enable-background:new 0 0 512 512;" xml:space="preserve">
<style type="text/css">
	.st0{fill:#CA454A;}
</style>
<g>
	<path class="st0" d="M511.2,281.3l-30-90c-2-6.1-7.8-10.3-14.2-10.3h-97v-75c0-8.3-6.7-15-15-15H15c-8.3,0-15,6.7-15,15v270
		c0,8.3,6.7,15,15,15h27.6c6.2,17.5,22.9,30,42.4,30c11.5,0,22-4.4,30-11.5c8,7.1,18.5,11.5,30,11.5c19.6,0,36.2-12.5,42.4-30h197.2
		c6.2,17.5,22.9,30,42.4,30s36.2-12.5,42.4-30H497c8.3,0,15-6.7,15-15v-90C512,284.4,511.7,282.8,511.2,281.3L511.2,281.3z
		 M476.2,271H432v-60h24.2L476.2,271z M30,121h310v150H30V121z M30,301h310v60H187.4c-6.2-17.5-22.9-30-42.4-30
		c-11.5,0-22,4.4-30,11.5c-8-7.1-18.5-11.5-30-11.5c-19.6,0-36.2,12.5-42.4,30H30L30,301z M85,391c-8.3,0-15-6.7-15-15s6.7-15,15-15
		s15,6.7,15,15S93.3,391,85,391z M145,391c-8.3,0-15-6.7-15-15s6.7-15,15-15s15,6.7,15,15S153.3,391,145,391z M427,391
		c-8.3,0-15-6.7-15-15s6.7-15,15-15s15,6.7,15,15S435.3,391,427,391z M469.4,361c-6.2-17.5-22.9-30-42.4-30s-36.2,12.5-42.4,30H370
		V211h32v75c0,8.3,6.7,15,15,15h65v60H469.4z"/>
	<path class="st0" d="M83,141c-8.3,0-15,6.7-15,15v80c0,8.3,6.7,15,15,15s15-6.7,15-15v-80C98,147.7,91.3,141,83,141z"/>
	<path class="st0" d="M151,141c-8.3,0-15,6.7-15,15v80c0,8.3,6.7,15,15,15s15-6.7,15-15v-80C166,147.7,159.3,141,151,141z"/>
	<path class="st0" d="M287,141c-8.3,0-15,6.7-15,15v80c0,8.3,6.7,15,15,15s15-6.7,15-15v-80C302,147.7,295.3,141,287,141z"/>
	<path class="st0" d="M219,141c-8.3,0-15,6.7-15,15v80c0,8.3,6.7,15,15,15s15-6.7,15-15v-80C234,147.7,227.3,141,219,141z"/>
</g>
</svg>
