<?xml version="1.0" encoding="utf-8"?>
<!-- Generator: Adobe Illustrator 22.0.1, SVG Export Plug-In . SVG Version: 6.00 Build 0)  -->
<svg version="1.1" id="Layer_1" xmlns="http://www.w3.org/2000/svg" xmlns:xlink="http://www.w3.org/1999/xlink" x="0px" y="0px"
	 viewBox="0 0 512 512" style="enable-background:new 0 0 512 512;" xml:space="preserve">
<style type="text/css">
	.st0{fill:#CA454A;}
</style>
<g>
	<g>
		<path class="st0" d="M406,90h-32.6c-6.2-17.5-22.9-30-42.4-30h-15c0-33.1-26.9-60-60-60s-60,26.9-60,60h-15
			c-19.6,0-36.2,12.5-42.4,30H106c-24.8,0-45,20.2-45,45v332c0,24.8,20.2,45,45,45h300c24.8,0,45-20.2,45-45V135
			C451,110.2,430.8,90,406,90z M181,90h32.8c10.4,0,17.6-10.3,14.1-20c-1.3-3.6-1.9-6.8-1.9-10c0-16.5,13.5-30,30-30s30,13.5,30,30
			c0,3.1-0.6,6.4-1.9,10c-3.5,9.8,3.8,20,14.1,20H331c8.3,0,15,6.7,15,15s-6.7,15-15,15H181c-8.3,0-15-6.7-15-15S172.7,90,181,90z
			 M421,467c0,8.3-6.7,15-15,15H106c-8.3,0-15-6.7-15-15V135c0-8.3,6.7-15,15-15h32.6c6.2,17.5,22.9,30,42.4,30h150
			c19.6,0,36.2-12.5,42.4-30H406c8.3,0,15,6.7,15,15V467z"/>
	</g>
</g>
<g>
	<g>
		<path class="st0" d="M376,210H256c-8.3,0-15,6.7-15,15s6.7,15,15,15h120c8.3,0,15-6.7,15-15S384.3,210,376,210z"/>
	</g>
</g>
<g>
	<g>
		<path class="st0" d="M206.6,184.4c-5.9-5.9-15.4-5.9-21.2,0L166,203.8l-19.4-19.4c-5.9-5.9-15.4-5.9-21.2,0s-5.9,15.4,0,21.2
			l30,30c2.9,2.9,6.8,4.4,10.6,4.4s7.7-1.5,10.6-4.4l30-30C212.5,199.7,212.5,190.3,206.6,184.4z"/>
	</g>
</g>
<g>
	<g>
		<path class="st0" d="M376,300H256c-8.3,0-15,6.7-15,15s6.7,15,15,15h120c8.3,0,15-6.7,15-15S384.3,300,376,300z"/>
	</g>
</g>
<g>
	<g>
		<path class="st0" d="M206.6,274.4c-5.9-5.9-15.4-5.9-21.2,0L166,293.8l-19.4-19.4c-5.9-5.9-15.4-5.9-21.2,0s-5.9,15.4,0,21.2
			l30,30c2.9,2.9,6.8,4.4,10.6,4.4s7.7-1.5,10.6-4.4l30-30C212.5,289.7,212.5,280.3,206.6,274.4z"/>
	</g>
</g>
<g>
	<g>
		<path class="st0" d="M376,390H256c-8.3,0-15,6.7-15,15s6.7,15,15,15h120c8.3,0,15-6.7,15-15S384.3,390,376,390z"/>
	</g>
</g>
<g>
	<g>
		<path class="st0" d="M206.6,364.4c-5.9-5.9-15.4-5.9-21.2,0L166,383.8l-19.4-19.4c-5.9-5.9-15.4-5.9-21.2,0s-5.9,15.4,0,21.2
			l30,30c2.9,2.9,6.8,4.4,10.6,4.4s7.7-1.5,10.6-4.4l30-30C212.5,379.7,212.5,370.3,206.6,364.4z"/>
	</g>
</g>
</svg>
