<?xml version="1.0" encoding="utf-8"?>
<!-- Generator: Adobe Illustrator 22.0.1, SVG Export Plug-In . SVG Version: 6.00 Build 0)  -->
<svg version="1.1" id="Layer_1" xmlns="http://www.w3.org/2000/svg" xmlns:xlink="http://www.w3.org/1999/xlink" x="0px" y="0px"
	 viewBox="0 0 448.3 119.1" style="enable-background:new 0 0 448.3 119.1;" xml:space="preserve">
<style type="text/css">
	.st0{fill-rule:evenodd;clip-rule:evenodd;fill:#FFFFFF;}
	.st1{fill:#FFFFFF;}
</style>
<path class="st0" d="M59.6,0c32.9,0,59.6,26.7,59.6,59.6c0,32.9-26.7,59.6-59.6,59.6C26.7,119.1,0,92.5,0,59.6C0,26.7,26.7,0,59.6,0
	L59.6,0z M59.6,8.7c28.1,0,50.9,22.8,50.9,50.9s-22.8,50.9-50.9,50.9c-28.1,0-50.9-22.8-50.9-50.9S31.5,8.7,59.6,8.7L59.6,8.7z"/>
<path class="st0" d="M39.7,47.2C33,57.7,26.4,68.3,19.7,78.8c3.5,0,7.1,0,10.6,0c5.7-0.3,10.4-4.6,14.3-11.7c9.3,0,18.6,0,27.9,0
	c-2.7-4.4-5.4-8.7-8.1-13.1c-4.5,0-9.1,0-13.6,0C45.8,53.4,42.3,50.8,39.7,47.2L39.7,47.2z"/>
<path class="st0" d="M60.6,44.9c3.6-4.6,8.4-6.1,14.2-5.5C83,52.6,91.2,65.8,99.4,79c-3.2,0-6.5,0-9.7,0c-5.8,0-10.6-3-14-9.8
	C70.7,61.1,65.7,53,60.6,44.9L60.6,44.9z"/>
<path class="st0" d="M57.1,47c-1.1,1.9-2.2,3.8-3.3,5.7c-5.3-0.6-9.8-2.6-12.9-6.8c3.2-5.3,6.4-10.6,9.6-15.8
	c5.2-7.3,13.3-6.9,17.6-1c1.9,3,3.8,6,5.7,8.9C64.6,36.9,60.4,41.4,57.1,47L57.1,47z"/>
<path class="st1" d="M135.1,55.1l11.7-33H158l11.7,33h-9.9l-1.8-5.7h-11.2l-1.8,5.7H135.1L135.1,55.1z M152.4,29.7l-3.8,12.4h7.5
	L152.4,29.7L152.4,29.7z M172.3,55.1v-33h19.8V30h-10.6v25.1H172.3L172.3,55.1z M195.7,55.1v-33h13.9c3.5,0,6.1,0.8,7.9,2.3
	c1.7,1.5,2.9,3.2,3.5,5c0.2,0.7,0.4,1.3,0.5,2c0.1,0.6,0.1,1.2,0.1,1.8c0,0.6,0,1.2-0.1,1.8c-0.1,0.6-0.3,1.3-0.5,2
	c-0.6,1.8-1.7,3.5-3.5,5c-1.8,1.5-4.4,2.3-7.9,2.3H205v10.9H195.7L195.7,55.1z M205,29.4v7.6h2.6c1.4,0,2.3-0.2,3-0.7
	c0.6-0.4,1.1-0.9,1.3-1.4c0.1-0.3,0.2-0.7,0.2-1c0-0.3,0-0.6,0-0.8c0-0.2,0-0.4,0-0.6c0-0.2,0-0.4-0.1-0.6c-0.2-0.7-0.5-1.3-1.2-1.8
	c-0.6-0.5-1.7-0.8-3.3-0.8H205L205,29.4z M242.2,56c-5.8,0-10.2-1.7-13.2-5.2c-3-3.5-4.5-7.6-4.5-12.2c0-4.6,1.5-8.7,4.5-12.2
	c3-3.5,7.4-5.3,13.3-5.3c5.9,0,10.3,1.8,13.3,5.3c3,3.5,4.5,7.6,4.5,12.2c0,4.6-1.5,8.7-4.5,12.2C252.5,54.2,248.1,55.9,242.2,56
	L242.2,56L242.2,56z M242.2,48.1c0.3,0,0.7,0,1.1-0.1c0.4,0,0.8-0.1,1.2-0.3c1.5-0.4,2.8-1.3,4.1-2.8c1.2-1.4,1.9-3.6,1.9-6.4
	c0-2.8-0.6-5-1.9-6.4c-1.2-1.4-2.6-2.4-4.1-2.8c-0.4-0.1-0.8-0.2-1.2-0.3c-0.4,0-0.8-0.1-1.1-0.1c-0.4,0-0.8,0-1.2,0.1
	c-0.4,0.1-0.8,0.2-1.2,0.3c-1.5,0.4-2.8,1.4-4,2.8c-1.2,1.4-1.8,3.5-1.8,6.3s0.6,4.9,1.8,6.3c1.2,1.4,2.6,2.4,4,2.8
	c0.4,0.1,0.8,0.2,1.2,0.3C241.4,48.1,241.8,48.1,242.2,48.1L242.2,48.1z M262.1,55.1l4.8-33h9.2l5.8,20.1l5.8-20.1h9.2l4.8,33h-8.9
	L290.4,36l-5.6,19.1h-5.9L273.4,36l-2.4,19.1H262.1L262.1,55.1z M302.1,55.1l11.7-33H325l11.7,33h-9.9l-1.8-5.7h-11.2l-1.8,5.7
	H302.1L302.1,55.1z M319.4,29.7l-3.8,12.4h7.5L319.4,29.7L319.4,29.7z M339.3,55.1v-33h13.9c3.5,0,6.1,0.8,7.9,2.3
	c1.7,1.5,2.9,3.2,3.5,5c0.2,0.7,0.4,1.3,0.5,2c0.1,0.6,0.1,1.2,0.1,1.8c0,0.6,0,1.2-0.1,1.8c-0.1,0.6-0.3,1.3-0.5,2
	c-0.6,1.8-1.7,3.5-3.5,5c-1.8,1.5-4.4,2.3-7.9,2.3h-4.7v10.9H339.3L339.3,55.1z M348.5,29.4v7.6h2.6c1.4,0,2.3-0.2,3-0.7
	c0.6-0.4,1.1-0.9,1.3-1.4c0.1-0.3,0.2-0.7,0.2-1c0-0.3,0-0.6,0-0.8c0-0.2,0-0.4,0-0.6c0-0.2,0-0.4-0.1-0.6c-0.2-0.7-0.5-1.3-1.2-1.8
	c-0.6-0.5-1.7-0.8-3.3-0.8H348.5L348.5,29.4z M369.5,55.1v-33h9.2V36l9.9-13.8h10.8l-12.5,16l12.9,17h-11.5l-9.6-14.2v14.2H369.5
	L369.5,55.1z M402.5,55.1v-33h19.8V30h-10.6v4.6h9.6v7.3h-9.6v5.3h10.6v7.9H402.5L402.5,55.1z M431.8,55.1V30h-7.3v-7.9h23.7V30
	h-7.3v25.1H431.8L431.8,55.1z"/>
</svg>
