<?xml version="1.0" encoding="utf-8"?>
<!-- Generator: Adobe Illustrator 22.0.1, SVG Export Plug-In . SVG Version: 6.00 Build 0)  -->
<svg version="1.1" id="Layer_1" xmlns="http://www.w3.org/2000/svg" xmlns:xlink="http://www.w3.org/1999/xlink" x="0px" y="0px"
	 viewBox="0 0 568.2 479.8" style="enable-background:new 0 0 568.2 479.8;" xml:space="preserve">
<style type="text/css">
	.st0{fill:#D0D0D0;}
	.st1{fill:none;stroke:#D0D0D0;stroke-width:0.8304;stroke-miterlimit:10;}
	.st2{fill:none;stroke:#D0D0D0;stroke-width:0.8627;stroke-miterlimit:10;}
	.st3{fill:none;stroke:#D0D0D0;stroke-width:0.895;stroke-miterlimit:10;}
	.st4{fill:none;stroke:#D0D0D0;stroke-width:0.9273;stroke-miterlimit:10;}
	.st5{fill:none;stroke:#D0D0D0;stroke-width:0.9596;stroke-miterlimit:10;}
	.st6{fill:none;stroke:#D0D0D0;stroke-width:0.992;stroke-miterlimit:10;}
	.st7{fill:none;stroke:#D0D0D0;stroke-width:1.0243;stroke-miterlimit:10;}
</style>
<g>
	<path class="st0" d="M33.8,373.4c0-25.3,21.5-45.8,48-45.8c26.5,0,48,20.6,48,45.8c0,25.3-21.5,45.8-48,45.8
		C55.3,419.2,33.8,398.7,33.8,373.4z M34.9,373.4c0,24.7,21,44.7,46.8,44.7c25.8,0,46.8-20.1,46.8-44.7c0-24.7-21-44.7-46.8-44.7
		C55.9,328.7,34.9,348.8,34.9,373.4z"/>
</g>
<g>
	<g>
		<g>
			<path class="st0" d="M30.6,304.4C30.6,304.4,30.6,304.4,30.6,304.4c0.2,0.8,0.2,1.6,0.4,2.3c0,0,0,0.1,0,0.1c0,0.1,0,0.3,0.1,0.3
				c0.2-0.1,0.5-0.1,0.8-0.2c0.3-0.1,0.5,0.3,0.8,0.3h0.1c0.6,0,1.3-0.4,1.8-0.1c0.8,0.4,1.5,0.5,1.8,1.2c0.1,0.4,0.2,0.8,0.2,1.2
				c0,0.4-0.1,0.8-0.2,1.2c-0.2,0.5-0.6,1.1-1.1,1.5c0,0,0,0,0,0c-0.2,0.2-0.4,0.3-0.7,0.5c-0.3,0.1-0.5,0.2-0.8,0.3
				c0.4,0.7,0.8,1.3,1.2,2c0.3-0.1,0.5-0.2,0.7-0.4c0.2-0.1,0.5-0.3,0.7-0.5l0,0c1-0.8,1.7-1.8,2-2.9c0.2-0.6,0.4-1.3,0.4-1.9
				c0-0.3,0-0.6-0.1-0.9c0-0.1-0.1-0.3-0.1-0.4c0-0.1-0.1-0.3-0.1-0.5c-0.2-0.6-0.6-1.1-1.1-1.5c-0.5-0.4-1-0.8-1.6-1.1
				c-0.6-0.3-1.3-0.5-2.1-0.7c-0.4-0.1-0.9-0.1-1.4-0.1c0,0-0.1,0-0.1,0c-0.3,0-0.5,0-0.8,0.1C31.1,304.2,30.8,304.3,30.6,304.4z"/>
			<path class="st0" d="M34.6,315.2c-0.4-0.6-0.9-1.3-1.3-2l-0.2-0.4l0.5-0.1c0.2-0.1,0.5-0.1,0.7-0.3c0.2-0.1,0.4-0.3,0.6-0.4
				l0.1-0.1c0.4-0.3,0.7-0.8,1-1.3c0.1-0.4,0.2-0.7,0.2-1.1c0-0.3-0.1-0.6-0.2-1.1c-0.2-0.6-0.7-1-1.6-1.4c-0.4-0.2-1-0.2-1.6-0.2
				h-0.1c-0.3,0-0.5,0-0.7,0.1c-0.1,0-0.2,0.1-0.3,0.1c-0.1,0.1-0.3,0.2-0.5,0.2l-0.4,0.1l-0.1-0.4l-0.1-0.3
				c-0.1-0.4-0.2-0.9-0.2-1.3c0-0.3-0.1-0.6-0.1-1l0-0.4l0.3-0.1c0.2-0.1,0.5-0.1,0.7-0.2l0,0c0.3,0,0.6-0.1,0.9-0.1
				c0,0,0.1,0,0.1,0c0.4,0,0.9,0,1.4,0.1c0.8,0.1,1.5,0.4,2.2,0.7c0.6,0.3,1.2,0.7,1.7,1.2c0.5,0.5,0.9,1.1,1.2,1.7
				c0.1,0.2,0.1,0.3,0.2,0.5c0,0.2,0.1,0.3,0.1,0.4c0.1,0.3,0.1,0.7,0.1,1c0,0.7-0.2,1.4-0.4,2c-0.4,1.2-1.2,2.2-2.1,3
				c-0.2,0.2-0.5,0.4-0.7,0.5c-0.3,0.2-0.5,0.3-0.8,0.4l-0.3,0.1L34.6,315.2z M32.2,304.5L32.2,304.5l-0.1,0c-0.3,0-0.5,0-0.8,0.1
				c-0.1,0-0.2,0-0.3,0.1c0,0.2,0.1,0.5,0.1,0.7c0,0.4,0.1,0.7,0.2,1.1c0.1-0.1,0.2-0.1,0.4-0.2c0.3-0.1,0.6-0.1,0.9-0.1v0.4
				l0.1-0.4c0.7,0,1.3,0,1.9,0.3c0.8,0.3,1.6,0.8,2,1.8c0.2,0.5,0.3,0.9,0.3,1.3c0,0.4-0.1,0.9-0.3,1.3c-0.3,0.6-0.7,1.2-1.2,1.6
				c-0.2,0.2-0.5,0.4-0.8,0.5c-0.1,0.1-0.3,0.1-0.4,0.2c0.3,0.4,0.5,0.9,0.8,1.3c0.1-0.1,0.3-0.1,0.4-0.2c0.3-0.2,0.5-0.3,0.6-0.5
				c0.9-0.7,1.5-1.7,1.9-2.7c0.2-0.5,0.3-1.2,0.4-1.8c0-0.3,0-0.6-0.1-0.8c0-0.1-0.1-0.3-0.1-0.4c0-0.1-0.1-0.3-0.1-0.4
				c-0.2-0.5-0.5-1-1-1.4c-0.5-0.5-1-0.8-1.5-1.1c-0.6-0.3-1.3-0.5-2-0.6c-0.4-0.1-0.7-0.1-1-0.1C32.4,304.5,32.3,304.5,32.2,304.5z
				"/>
		</g>
	</g>
	<g>
		<g>
			<path class="st0" d="M38.8,320c0.6,0.6,1.1,0.8,1.7,1.3c0.1-0.2,0.3-0.5,0.5-0.7c0.2-0.2,0.4-0.4,0.6-0.5
				c0.5-0.4,1.2-0.6,1.8-0.6c0.9-0.1,1.8,0,2.5,0.6c0.2,0.1,0.3,0.3,0.5,0.4c0.1,0.1,0.3,0.3,0.4,0.5c0.2,0.3,0.4,0.7,0.5,1.1
				c0.1,0.6,0.1,1.2-0.1,1.8c-0.1,0.3-0.2,0.5-0.3,0.8c-0.1,0.2-0.3,0.5-0.5,0.6c0.7,0.4,1.4,0.7,2.2,1c0.2-0.2,0.3-0.5,0.4-0.7
				c0.1-0.2,0.2-0.5,0.3-0.7c0.4-1.2,0.3-2.4,0.1-3.4c-0.2-0.6-0.4-1.3-0.8-1.8c-0.3-0.5-0.8-0.9-1.3-1.3c-0.5-0.4-1.1-0.5-1.8-0.6
				c-0.6-0.2-1.3,0-2,0.1c-1.2,0.1-2.3,0.8-3.3,1.5c0,0-0.1,0-0.1,0.6h0c-0.2,0-0.4-0.3-0.6-0.1C39.1,319.9,38.9,319.8,38.8,320z"/>
			<path class="st0" d="M48.3,326.6c-0.8-0.3-1.5-0.7-2.2-1.1l-0.4-0.2L46,325c0.2-0.2,0.3-0.3,0.4-0.6c0.1-0.2,0.2-0.4,0.3-0.7
				c0.2-0.5,0.2-1.1,0.1-1.6c-0.1-0.4-0.2-0.7-0.4-1c-0.1-0.1-0.2-0.3-0.4-0.4c-0.1-0.2-0.3-0.3-0.4-0.4c-0.7-0.5-1.6-0.5-2.2-0.5
				c-0.6,0.1-1.1,0.3-1.6,0.6c-0.2,0.1-0.4,0.3-0.5,0.5c-0.2,0.2-0.3,0.4-0.4,0.6l-0.2,0.4l-0.8-0.7c-0.5-0.4-0.9-0.7-1.3-1.2
				l-0.2-0.2l0.2-0.2c0.1-0.2,0.3-0.3,0.4-0.4c0.1,0,0.1-0.1,0.2-0.1v0c0.2-0.1,0.3-0.3,0.5-0.3c0-0.3,0.1-0.4,0.4-0.4
				c0,0,0.1,0,0.2,0c1-0.6,2.1-1,3.2-1.2c0.7-0.1,1.5-0.1,2.1,0.1c0.6,0.1,1.3,0.3,2,0.8c0.5,0.4,1,0.8,1.4,1.4
				c0.4,0.6,0.6,1.2,0.8,1.9c0.3,1.2,0.3,2.5-0.1,3.6c-0.1,0.3-0.2,0.5-0.3,0.8c-0.1,0.3-0.3,0.5-0.5,0.8l-0.2,0.3L48.3,326.6z
				 M43.4,317.9c-1,0.1-2.1,0.5-3.1,1.2v0l0,0.4H40c-0.1,0-0.2,0-0.4,0.2l0,0c-0.1,0.1-0.2,0.1-0.3,0.2c0.3,0.3,0.6,0.6,1,0.9
				l0.1,0.1c0.1-0.1,0.2-0.2,0.3-0.4c0.2-0.2,0.4-0.4,0.7-0.6c0.6-0.4,1.2-0.6,2-0.7c1.1-0.1,2.1,0.1,2.7,0.6
				c0.2,0.1,0.4,0.3,0.5,0.5c0.2,0.2,0.3,0.3,0.4,0.5c0.3,0.4,0.4,0.8,0.5,1.3c0.1,0.7,0.1,1.4-0.1,2c-0.1,0.3-0.2,0.6-0.3,0.8
				c-0.1,0.1-0.2,0.3-0.2,0.4c0.5,0.2,0.9,0.5,1.4,0.7c0.1-0.1,0.1-0.3,0.2-0.4c0.1-0.2,0.2-0.4,0.3-0.7c0.3-1,0.3-2.2,0.1-3.2
				c-0.2-0.6-0.4-1.2-0.7-1.7c-0.3-0.5-0.8-0.9-1.2-1.2c-0.5-0.4-1.1-0.5-1.7-0.6c-0.3-0.1-0.6-0.1-0.9-0.1
				C44.1,317.8,43.8,317.9,43.4,317.9z"/>
		</g>
	</g>
	<g>
		<g>
			<path class="st0" d="M56.7,328.7c0-0.3,0-0.6,0-0.8c0-0.3,0.1-0.5,0.2-0.7c0.3-0.6,0.7-1.1,1.1-1.5c0.7-0.5,1.5-0.8,2.4-0.8
				c0.4,0,0.9,0.1,1.2,0.3c0.4,0.2,0.7,0.4,1,0.7c0.4,0.4,0.8,1,1,1.6c0.1,0.2,0.1,0.5,0.2,0.8c0,0.3,0,0.6-0.1,0.8
				c0.8,0,1.6-0.1,2.4-0.2c0-0.3,0-0.6-0.1-0.8c0-0.3-0.1-0.5-0.2-0.8c-0.1-0.5-0.3-0.9-0.6-1.3c-0.4-0.6-0.8-1.1-1.3-1.6
				c-1-1-2.2-1.5-3.6-1.6c-1.3,0-2.6,0.4-3.7,1.3c-0.6,0.4-1.1,0.9-1.5,1.5c-0.3,0.4-0.5,0.8-0.7,1.3c-0.1,0.2-0.2,0.5-0.2,0.7
				c-0.1,0.3-0.1,0.6-0.1,0.8C55.1,328.4,55.9,328.6,56.7,328.7z"/>
			<path class="st0" d="M63.5,329c0-0.2,0.1-0.5,0-0.7c0-0.3-0.1-0.5-0.1-0.7c-0.2-0.5-0.5-1-0.9-1.4c-0.3-0.2-0.6-0.5-0.9-0.6
				c-0.4-0.2-0.7-0.3-1.1-0.3c-0.9,0-1.6,0.4-2.1,0.7c-0.5,0.3-0.8,0.8-1,1.3c-0.1,0.2-0.2,0.4-0.2,0.7c0,0.3,0,0.5,0,0.7l0.1,0.5
				l-0.5-0.1c-0.8-0.1-1.6-0.3-2.4-0.5l-0.3-0.1l0-0.3c0-0.3,0.1-0.5,0.2-0.9c0.1-0.3,0.1-0.5,0.3-0.8c0.2-0.5,0.4-0.9,0.7-1.3
				c0.4-0.6,0.9-1.1,1.6-1.6c1.1-0.9,2.5-1.3,4-1.3c0,0,0,0,0,0c1.5,0.2,2.8,0.7,3.8,1.7c0.5,0.5,1,1,1.4,1.7
				c0.3,0.5,0.5,0.9,0.6,1.4c0.1,0.3,0.1,0.5,0.2,0.8c0,0.3,0.1,0.6,0.1,0.9v0.3l-0.3,0c-0.9,0.1-1.7,0.2-2.5,0.2l-0.5,0L63.5,329z
				 M65.9,328c0-0.2-0.1-0.5-0.2-0.7c-0.1-0.4-0.3-0.8-0.5-1.2c-0.4-0.6-0.8-1.1-1.3-1.6c-0.9-0.9-2-1.3-3.3-1.5
				c-1.3,0-2.4,0.4-3.4,1.2c-0.6,0.5-1.1,0.9-1.4,1.4c-0.3,0.4-0.5,0.8-0.7,1.2c-0.1,0.2-0.2,0.5-0.2,0.7c0,0.2-0.1,0.3-0.1,0.5
				c0.6,0.1,1.1,0.2,1.6,0.3c0-0.2,0-0.3,0-0.5c0-0.3,0.1-0.6,0.2-0.8c0.3-0.6,0.7-1.2,1.3-1.6c0.6-0.4,1.5-0.9,2.6-0.9
				c0.5,0,1,0.1,1.4,0.4c0.4,0.2,0.8,0.4,1.2,0.8c0.5,0.5,0.9,1.1,1.1,1.7c0.1,0.3,0.1,0.5,0.2,0.9c0,0.2,0,0.3,0,0.5
				c0.5,0,1-0.1,1.6-0.2C65.9,328.3,65.9,328.2,65.9,328z"/>
		</g>
	</g>
	<g>
		<g>
			<path class="st0" d="M71.8,325.9c0,0.3,0.1,0.5,0.2,0.8c0.1,0.3,0.2,0.5,0.4,0.8c0.8-0.3,1.5-0.5,2.2-0.8
				c-0.2-0.2-0.3-0.4-0.4-0.7c-0.1-0.3-0.2-0.5-0.2-0.8c-0.1-0.6-0.1-1.3,0.1-1.8c0.3-0.8,0.8-1.4,1.5-1.9c0.7-0.4,1.7-0.5,2.5-0.3
				c0.6,0.1,1.2,0.4,1.7,0.8c0.2,0.2,0.4,0.4,0.6,0.6c0.2,0.2,0.3,0.5,0.4,0.7c0.7-0.5,1.3-0.9,1.9-1.4c-0.2-0.2-0.3-0.5-0.5-0.7
				c-0.2-0.2-0.4-0.4-0.6-0.6c-1-0.8-2.1-1.3-3.3-1.5c-0.7-0.1-1.4-0.2-2-0.1c-0.7,0.1-1.3,0.2-1.9,0.6c-0.5,0.4-1.1,0.7-1.5,1.2
				c-0.4,0.5-0.7,1.1-0.9,1.7C71.7,323.4,71.5,324.7,71.8,325.9z"/>
			<path class="st0" d="M72,327.6c-0.2-0.3-0.3-0.5-0.4-0.8c-0.1-0.2-0.2-0.5-0.2-0.8c-0.2-1.2-0.1-2.5,0.3-3.7l0,0
				c0.2-0.6,0.5-1.3,1-1.8c0.4-0.6,1-1,1.6-1.3c0.6-0.3,1.2-0.5,2-0.6c0.7-0.1,1.4-0.1,2.2,0.1c1.4,0.3,2.5,0.8,3.4,1.6
				c0.2,0.2,0.5,0.4,0.6,0.6c0.2,0.2,0.4,0.4,0.5,0.7l0.2,0.3l-0.3,0.2c-0.7,0.5-1.3,1-1.9,1.5l-0.4,0.3l-0.2-0.4
				c-0.1-0.2-0.2-0.4-0.4-0.6c-0.2-0.2-0.3-0.4-0.5-0.5c-0.4-0.4-1-0.6-1.5-0.7c-0.6-0.1-1.5-0.1-2.2,0.3c-0.7,0.5-1.2,1-1.4,1.7
				c-0.2,0.5-0.2,1.1-0.1,1.6c0,0.2,0.1,0.5,0.2,0.7c0.1,0.2,0.2,0.4,0.4,0.6l0.3,0.4l-0.4,0.2c-0.7,0.3-1.5,0.6-2.3,0.9l-0.3,0.1
				L72,327.6z M73.8,326c-0.1-0.3-0.2-0.6-0.3-0.8c-0.1-0.7-0.1-1.3,0.1-2c0.3-0.8,0.8-1.5,1.7-2.1c0.7-0.4,1.7-0.6,2.8-0.4
				c0.7,0.1,1.3,0.4,1.9,0.9c0.2,0.2,0.4,0.4,0.6,0.6c0.1,0.1,0.2,0.2,0.3,0.4c0.4-0.3,0.8-0.6,1.2-1c-0.1-0.1-0.2-0.2-0.3-0.4
				c-0.2-0.2-0.3-0.4-0.6-0.5c-0.8-0.7-1.9-1.2-3.1-1.4c-0.7-0.1-1.3-0.1-1.9,0c-0.7,0.1-1.2,0.2-1.7,0.5c-0.5,0.3-1,0.7-1.4,1.1
				c-0.4,0.5-0.7,1.1-0.9,1.6c-0.4,1-0.5,2.2-0.3,3.3c0,0.3,0.1,0.5,0.2,0.7c0.1,0.1,0.1,0.3,0.2,0.4c0.5-0.2,1-0.4,1.5-0.6
				C73.9,326.3,73.9,326.1,73.8,326z"/>
		</g>
	</g>
	<g>
		<g>
			<path class="st0" d="M83.9,313.4c0.3,1.1,0.8,2.2,1.7,3c0.2,0.2,0.4,0.4,0.6,0.5c0.2,0.2,0.5,0.3,0.7,0.5c0.5-0.6,1-1.2,1.4-1.9
				c-0.3-0.1-0.5-0.2-0.7-0.4c-0.2-0.2-0.5-0.3-0.6-0.5c-0.5-0.5-0.8-1-0.9-1.6c-0.1-0.4-0.2-0.8-0.1-1.2c0.1-0.4,0.2-0.8,0.4-1.2
				c0.4-0.8,1.1-1.3,1.9-1.6c0.6-0.2,1.2-0.3,1.9-0.2c0.3,0,0.5,0.1,0.8,0.2c0.3,0.1,0.5,0.2,0.8,0.4c0.3-0.7,0.5-1.5,0.8-2.2
				c-0.3-0.1-0.5-0.2-0.8-0.3c-0.3-0.1-0.5-0.1-0.8-0.2c-0.5-0.1-1-0.1-1.5,0c-0.8,0.1-1.5,0.2-2.1,0.5c-0.7,0.3-1.2,0.6-1.7,1
				c-0.5,0.4-1,0.9-1.2,1.4c-0.3,0.6-0.5,1.1-0.5,1.8C83.7,312,83.8,312.7,83.9,313.4z"/>
			<path class="st0" d="M86.8,317.7c-0.3-0.1-0.5-0.3-0.8-0.5c-0.2-0.2-0.5-0.4-0.6-0.6c-0.9-0.9-1.5-2-1.8-3.2
				c-0.1-0.6-0.3-1.3-0.2-2c0-0.7,0.3-1.3,0.6-1.9c0.3-0.6,0.8-1.1,1.3-1.6c0.5-0.4,1.1-0.8,1.8-1.1c0.7-0.3,1.5-0.4,2.3-0.5
				c0.5,0,1,0,1.6,0c0.3,0,0.6,0.1,0.9,0.2c0.3,0.1,0.6,0.2,0.9,0.3l0.3,0.1l-0.1,0.3c-0.2,0.7-0.5,1.5-0.8,2.2l-0.2,0.5l-0.4-0.3
				c-0.2-0.1-0.4-0.2-0.7-0.3c-0.2-0.1-0.5-0.1-0.7-0.2c-0.6-0.1-1.2,0-1.7,0.2c-0.6,0.2-1.3,0.6-1.7,1.4c-0.2,0.4-0.3,0.8-0.3,1.1
				c0,0.3,0,0.7,0.1,1.1c0.2,0.5,0.4,1,0.8,1.4c0.2,0.2,0.4,0.3,0.6,0.5c0.2,0.1,0.4,0.2,0.7,0.3l0.5,0.2l-0.3,0.4
				c-0.5,0.7-1,1.3-1.4,1.9l-0.2,0.3L86.8,317.7z M87.4,315.5c-0.3-0.2-0.5-0.4-0.7-0.6c-0.5-0.5-0.8-1.1-1-1.7
				c-0.1-0.5-0.2-0.9-0.1-1.4c0.1-0.4,0.2-0.8,0.4-1.3c0.4-0.8,1.1-1.4,2.1-1.7c0.7-0.2,1.4-0.3,2.1-0.2c0.3,0,0.6,0.1,0.9,0.2
				c0.2,0.1,0.3,0.1,0.4,0.2c0.2-0.5,0.4-1,0.5-1.4c-0.1-0.1-0.3-0.1-0.4-0.1c-0.3-0.1-0.5-0.1-0.7-0.2c-0.5-0.1-0.9-0.1-1.4,0
				c-0.7,0.1-1.4,0.2-2,0.4c-0.6,0.2-1.2,0.5-1.6,0.9c-0.5,0.4-0.9,0.8-1.1,1.3c-0.2,0.5-0.5,1.1-0.5,1.6l0,0
				c-0.1,0.6,0.1,1.3,0.2,1.8c0.3,1.1,0.8,2.1,1.6,2.9c0.2,0.2,0.3,0.3,0.6,0.5c0.1,0.1,0.2,0.2,0.4,0.3c0.3-0.4,0.6-0.8,0.9-1.2
				C87.7,315.6,87.6,315.5,87.4,315.5z"/>
		</g>
	</g>
	<g>
		<g>
			<path class="st0" d="M87,296.3c0,1.3,0.8,2.4,1.8,3.3c0.8,0.8,1.9,1.4,3.2,1.7c0.3,0.1,0.5,0.1,0.8,0.1c0.3,0,0.6,0,0.9,0
				c0.1-0.8,0.1-1.5,0.1-2.3c-0.3,0.1-0.6,0.1-0.9,0.1c-0.3,0-0.6,0-0.8-0.1c-0.6-0.2-1.2-0.5-1.7-0.9c-0.7-0.6-1.1-1.3-1.2-2.1
				c-0.1-0.8,0.2-1.6,0.7-2.3c0.4-0.5,0.9-0.9,1.5-1.1c0.2-0.1,0.5-0.2,0.8-0.3c0.3-0.1,0.6-0.1,0.9-0.1c-0.2-0.8-0.4-1.5-0.6-2.3
				c-0.3,0-0.6,0.1-0.8,0.2c-0.3,0.1-0.5,0.2-0.8,0.3c-1.2,0.5-2.1,1.3-2.8,2.2c-0.2,0.3-0.4,0.6-0.5,0.8c-0.2,0.3-0.3,0.6-0.4,0.9
				C87,295,86.9,295.7,87,296.3z"/>
			<path class="st0" d="M92.7,301.8c-0.3,0-0.6-0.1-0.9-0.1c-1.2-0.3-2.4-0.9-3.4-1.8c-1.2-1.2-1.8-2.4-1.9-3.5
				c-0.1-0.7,0-1.4,0.2-2l0,0c0.1-0.3,0.3-0.7,0.4-0.9c0.2-0.3,0.4-0.6,0.5-0.9c0.7-1,1.8-1.8,2.9-2.3c0.3-0.1,0.5-0.2,0.8-0.3
				c0.3-0.1,0.6-0.1,0.9-0.2l0.3,0l0.1,0.3c0.2,0.7,0.4,1.4,0.6,2.3l0.1,0.5l-0.5,0c-0.2,0-0.5,0-0.7,0.1c-0.3,0.1-0.5,0.1-0.7,0.2
				c-0.5,0.2-1,0.6-1.3,1c-0.5,0.6-0.7,1.3-0.6,2.1c0,0.9,0.6,1.5,1,1.9c0.5,0.4,1,0.7,1.5,0.8c0.2,0.1,0.5,0.1,0.7,0.1
				c0.2,0,0.5,0,0.7-0.1l0.5-0.1l0,0.5c0,0.8-0.1,1.6-0.1,2.4l0,0.3l-0.3,0c-0.1,0-0.2,0-0.4,0C93.1,301.8,92.9,301.8,92.7,301.8z
				 M92.9,299.6c-0.3,0-0.6-0.1-0.9-0.1c-0.6-0.2-1.2-0.5-1.8-0.9c-0.8-0.7-1.2-1.5-1.3-2.4c-0.1-0.9,0.2-1.8,0.8-2.6
				c0.5-0.6,1-1,1.6-1.2c0.3-0.1,0.6-0.2,0.9-0.3c0.2,0,0.3-0.1,0.5-0.1c-0.1-0.5-0.3-1-0.4-1.5c-0.2,0-0.3,0.1-0.5,0.1
				c-0.2,0.1-0.5,0.2-0.7,0.3c-1,0.4-2,1.2-2.6,2.1c-0.2,0.2-0.3,0.5-0.5,0.8c-0.1,0.2-0.3,0.5-0.4,0.8c-0.2,0.5-0.2,1.1-0.2,1.7
				c0,1,0.6,2,1.7,3.1c0.8,0.8,1.9,1.3,3,1.6c0.3,0.1,0.5,0.1,0.8,0.1c0.2,0,0.3,0,0.5,0c0-0.5,0.1-1,0.1-1.5
				C93.2,299.6,93.1,299.6,92.9,299.6z"/>
		</g>
	</g>
	<g>
		<g>
			<path class="st0" d="M80.6,280.1c0,0.6,0,1.3,0.2,1.9c0.2,0.6,0.5,1.1,0.9,1.7c0.4,0.5,0.9,0.9,1.5,1.2c0.5,0.3,1.2,0.5,1.9,0.7
				c1.2,0.2,2.4,0.2,3.6-0.2c0.3-0.1,0.5-0.2,0.8-0.3c0.3-0.1,0.5-0.3,0.7-0.4c-0.4-0.7-0.8-1.4-1.2-2c-0.2,0.2-0.4,0.4-0.7,0.5
				c-0.2,0.1-0.5,0.3-0.7,0.3c-0.6,0.2-1.3,0.2-1.9,0.1c-0.9-0.1-1.7-0.5-2.2-1.2c-0.1-0.2-0.2-0.3-0.3-0.5
				c-0.1-0.2-0.2-0.4-0.3-0.6c-0.1-0.4-0.2-0.8-0.1-1.2c0-0.6,0.2-1.2,0.6-1.7c0.1-0.2,0.3-0.4,0.5-0.6c0.2-0.2,0.4-0.4,0.7-0.5
				c-0.6-0.6-1.1-1.1-1.8-1.6c-0.2,0.2-0.4,0.4-0.6,0.6c-0.2,0.2-0.4,0.4-0.5,0.6C81,277.8,80.6,279,80.6,280.1z"/>
			<path class="st0" d="M85,285.9c-0.8-0.1-1.5-0.4-2-0.7c-0.7-0.3-1.2-0.8-1.7-1.3c-0.4-0.5-0.7-1.1-0.9-1.7
				c-0.2-0.6-0.2-1.4-0.2-2.1c0-1.2,0.5-2.5,1.1-3.5c0.1-0.2,0.3-0.4,0.5-0.7c0.2-0.2,0.4-0.4,0.7-0.6l0.3-0.2l0.2,0.2
				c0.7,0.6,1.3,1.1,1.8,1.6l0.3,0.3l-0.4,0.2c-0.2,0.1-0.4,0.3-0.6,0.4c-0.2,0.2-0.3,0.4-0.5,0.6c-0.3,0.5-0.5,1-0.5,1.6
				c0,0.4,0,0.8,0.1,1.1c0.1,0.2,0.1,0.3,0.2,0.5c0.1,0.2,0.2,0.3,0.3,0.5c0.5,0.7,1.3,0.9,1.9,1c0.6,0.1,1.2,0.1,1.7-0.1
				c0.2-0.1,0.5-0.2,0.7-0.3c0.2-0.1,0.4-0.3,0.6-0.5l0.3-0.4l0.3,0.4c0.4,0.6,0.8,1.3,1.2,2l0.1,0.3l-0.2,0.2
				c-0.2,0.2-0.5,0.3-0.8,0.5c-0.3,0.1-0.6,0.2-0.8,0.3c-0.7,0.3-1.5,0.4-2.4,0.4C86,286,85.5,286,85,285.9z M88.9,283.1
				c-0.1,0.1-0.2,0.2-0.4,0.3c-0.3,0.2-0.5,0.3-0.8,0.4c-0.7,0.2-1.4,0.3-2.1,0.1c-0.8-0.1-1.8-0.5-2.4-1.3
				c-0.2-0.2-0.3-0.4-0.3-0.6c-0.1-0.2-0.2-0.4-0.3-0.6c-0.1-0.4-0.2-0.9-0.1-1.3c0.1-0.7,0.3-1.3,0.6-1.9c0.2-0.3,0.4-0.5,0.6-0.7
				c0.1-0.1,0.2-0.2,0.3-0.3c-0.4-0.3-0.7-0.7-1.2-1c-0.1,0.1-0.2,0.2-0.3,0.3c-0.2,0.2-0.3,0.4-0.5,0.6l0,0c-0.6,0.9-1,2-1,3.1
				c0,0.6,0,1.3,0.2,1.8c0.2,0.6,0.5,1,0.8,1.5c0.3,0.4,0.8,0.8,1.4,1.1c0.5,0.3,1.1,0.5,1.7,0.6c1.3,0.2,2.4,0.1,3.4-0.2
				c0.2-0.1,0.5-0.2,0.7-0.3c0.1-0.1,0.3-0.1,0.4-0.2C89.4,284,89.2,283.5,88.9,283.1z"/>
		</g>
	</g>
	<g>
		<g>
			<path class="st0" d="M66.2,270c0,1.2,0.4,2.4,1,3.3c0.4,0.6,0.8,1.1,1.3,1.5c0.2,0.2,0.5,0.4,0.8,0.5c0.3,0.1,0.6,0.3,0.9,0.4
				c0.6,0.2,1.3,0.3,1.9,0.2c0.6,0,1.3-0.2,2-0.4c1.1-0.5,2.1-1.1,2.9-2.1c0.2-0.2,0.3-0.4,0.5-0.6c0.1-0.2,0.3-0.5,0.4-0.7
				c-0.7-0.4-1.4-0.7-2.1-1.1c0,0.3-0.1,0.5-0.3,0.8c-0.1,0.2-0.3,0.5-0.4,0.7c-0.4,0.5-1,0.9-1.5,1.1c-0.8,0.3-1.7,0.4-2.5,0.1
				c-0.8-0.3-1.5-0.8-1.9-1.6c-0.3-0.5-0.5-1.1-0.5-1.8c0-0.3,0-0.5,0.1-0.8c0.1-0.3,0.2-0.5,0.3-0.8c-0.8-0.2-1.6-0.3-2.4-0.4
				c-0.1,0.3-0.2,0.5-0.2,0.8C66.2,269.5,66.2,269.7,66.2,270z"/>
			<path class="st0" d="M70,276.1c-0.3-0.1-0.5-0.2-0.7-0.3l-0.2-0.1c-0.3-0.2-0.6-0.4-0.9-0.6c-0.5-0.4-0.9-0.9-1.3-1.6
				c-0.7-1.1-1-2.3-1-3.5c0-0.3,0-0.5,0.1-0.8c0-0.3,0.1-0.6,0.2-0.9l0.1-0.3l0.3,0c0.8,0.1,1.6,0.3,2.4,0.4l0.5,0.1l-0.2,0.4
				c-0.1,0.2-0.2,0.4-0.3,0.7c-0.1,0.2-0.1,0.5-0.1,0.7c0,0.6,0.2,1.1,0.4,1.6c0.4,0.6,0.9,1.1,1.7,1.4c0.8,0.3,1.6,0.1,2.2-0.1
				c0.5-0.2,1-0.6,1.4-1c0.2-0.2,0.3-0.4,0.4-0.6c0.1-0.2,0.2-0.5,0.2-0.7l0.1-0.5l0.5,0.2c0.7,0.3,1.4,0.7,2.2,1.1l0.3,0.2
				l-0.1,0.3c-0.1,0.3-0.2,0.6-0.4,0.8c-0.2,0.3-0.3,0.5-0.5,0.7c-0.7,0.9-1.8,1.7-3.1,2.2c-0.7,0.3-1.4,0.4-2.1,0.4
				c-0.2,0-0.3,0-0.5,0C70.9,276.4,70.4,276.3,70,276.1z M75.8,271.6c0,0.1-0.1,0.3-0.2,0.4c-0.1,0.3-0.3,0.5-0.5,0.7
				c-0.4,0.5-1,0.9-1.7,1.2c-1.1,0.4-2,0.4-2.8,0.1c-1-0.4-1.7-1-2.1-1.7c-0.3-0.6-0.5-1.3-0.5-1.9c0-0.3,0-0.6,0.1-0.9
				c0-0.1,0.1-0.3,0.1-0.4c-0.5-0.1-1-0.2-1.6-0.3c0,0.1-0.1,0.3-0.1,0.5l0,0c0,0.3-0.1,0.5-0.1,0.7c0,1.1,0.3,2.2,0.9,3.1
				c0.4,0.6,0.8,1.1,1.2,1.4c0.2,0.2,0.5,0.3,0.7,0.5c0.1,0,0.2,0.1,0.3,0.1c0.2,0.1,0.4,0.2,0.6,0.3c0.5,0.2,1,0.2,1.8,0.2
				c0.6,0,1.2-0.1,1.8-0.4c1.2-0.5,2.1-1.1,2.8-2c0.1-0.2,0.3-0.4,0.4-0.6c0.1-0.1,0.2-0.3,0.2-0.4C76.8,272,76.3,271.8,75.8,271.6z
				"/>
		</g>
	</g>
	<g>
		<g>
			<path class="st0" d="M48.6,270.8C48.6,270.8,48.6,270.8,48.6,270.8c0.1,0.3,0.2,0.5,0.3,0.8c0.1,0.2,0.2,0.5,0.4,0.7c0,0,0,0,0,0
				c0.7,1,1.6,1.8,2.7,2.3c0.6,0.3,1.3,0.5,1.9,0.6c0.6,0.1,1.3,0.1,1.9,0c0.3-0.1,0.6-0.2,0.9-0.3c0.3-0.1,0.6-0.3,0.8-0.4
				c0.5-0.4,1-0.8,1.4-1.4c0.7-0.9,1.2-2,1.3-3.2c0-0.3,0-0.5,0-0.8c0-0.3-0.1-0.6-0.1-0.8c-0.8,0-1.6,0.1-2.4,0.2
				c0.1,0.3,0.2,0.5,0.2,0.8c0,0.3,0,0.5,0,0.8c-0.1,0.6-0.3,1.2-0.7,1.7c-0.5,0.7-1.2,1.2-2,1.4c-0.8,0.2-1.7,0-2.5-0.4
				c-0.5-0.3-1-0.7-1.4-1.2c0,0,0,0,0,0c-0.1-0.2-0.3-0.4-0.4-0.7c-0.1-0.3-0.2-0.5-0.2-0.8c0,0,0-0.1,0-0.1
				C50.1,270.2,49.3,270.5,48.6,270.8z"/>
			<path class="st0" d="M53.9,275.6c-0.7-0.1-1.4-0.3-2.1-0.6c-1.2-0.6-2.1-1.4-2.7-2.3l-0.2,0v-0.3c-0.1-0.2-0.2-0.4-0.4-0.6
				c-0.1-0.3-0.2-0.5-0.3-0.8l0-0.1v-0.3l0.2-0.1c0.7-0.3,1.5-0.6,2.3-0.9l0.5-0.2v0.5c0,0.2,0.1,0.4,0.2,0.7
				c0.1,0.2,0.2,0.4,0.3,0.6l0,0.1c0.3,0.4,0.7,0.8,1.2,1.1c0.8,0.4,1.6,0.5,2.2,0.3c0.8-0.2,1.4-0.6,1.8-1.2c0.3-0.5,0.5-1,0.6-1.6
				c0-0.2,0-0.5,0-0.7c0-0.3-0.1-0.5-0.2-0.7l-0.2-0.5l0.5-0.1c0.9-0.1,1.7-0.2,2.5-0.2l0.3,0l0.1,0.3c0.1,0.3,0.1,0.6,0.1,0.9
				c0,0.3,0,0.5,0,0.8c-0.1,1.2-0.6,2.4-1.4,3.4c-0.5,0.6-1,1.1-1.5,1.5c-0.3,0.2-0.6,0.3-0.9,0.5c-0.3,0.1-0.6,0.3-1,0.4
				c-0.4,0.1-0.7,0.1-1.1,0.1C54.5,275.6,54.2,275.6,53.9,275.6z M58.3,268.6c0,0.1,0.1,0.3,0.1,0.5c0,0.3,0,0.6,0,0.9
				c-0.1,0.7-0.3,1.3-0.7,1.9c-0.5,0.7-1.3,1.3-2.3,1.5c-0.8,0.2-1.7,0.1-2.8-0.4c-0.6-0.3-1.1-0.7-1.5-1.3l-0.1-0.1v-0.1
				c-0.1-0.2-0.3-0.4-0.3-0.7c-0.1-0.1-0.1-0.3-0.1-0.4c-0.5,0.2-1,0.4-1.5,0.6c0.1,0.1,0.1,0.3,0.2,0.4c0.1,0.2,0.2,0.3,0.3,0.5
				l0.1,0.2c0,0,0,0,0,0l0,0c0.6,0.8,1.4,1.5,2.5,2.1c0.6,0.3,1.2,0.5,1.8,0.6c0.6,0.1,1.2,0.1,1.8,0c0.3-0.1,0.5-0.2,0.9-0.3
				c0.3-0.1,0.5-0.2,0.8-0.4c0.5-0.3,0.9-0.8,1.3-1.3c0.7-0.9,1.1-2,1.2-3c0-0.2,0-0.5,0-0.7c0-0.2,0-0.3,0-0.5
				C59.4,268.5,58.9,268.6,58.3,268.6z"/>
		</g>
	</g>
	<g>
		<g>
			<path class="st0" d="M35.6,282C35.6,282,35.6,282,35.6,282c0,0-0.3,0-0.3,0c0.2,0.2,0.1,0.3,0.4,0.5c0.2,0.1,0.5,0.3,0.7,0.4
				c0,0,0,0,0,0c0,0,0,0,0,0c1.2,0.5,2.4,0.6,3.6,0.6c0.7-0.1,1.4-0.2,1.9-0.5c0.6-0.2,1.2-0.6,1.6-1c0.4-0.5,0.8-1,1-1.6
				c0.2-0.6,0.3-1.3,0.4-1.9c0.1-1.1-0.2-2.3-0.8-3.4c-0.1-0.2-0.3-0.5-0.4-0.7c-0.2-0.2-0.3-0.4-0.5-0.6l0,0
				c-0.7,0.4-1.3,0.6-1.9,1.4c0.2,0,0.4,0.4,0.6,0.6c0.2,0.2,0.3,0.5,0.5,0.7c0.3,0.6,0.4,1.2,0.4,1.8c0,0.4-0.1,0.8-0.3,1.2
				c-0.1,0.2-0.2,0.4-0.3,0.5c-0.1,0.2-0.2,0.3-0.4,0.5c-0.6,0.6-1.4,0.9-2.3,1c-0.5,0-1.1,0-1.7-0.2c-0.1,0-0.1,0-0.2-0.1
				c0,0,0,0,0,0c-0.1,0-0.1-0.1-0.1-0.1c-0.2-0.1-0.3-0.2-0.5-0.3c-0.2-0.2-0.3-0.3-0.5-0.6C35.9,280.8,36.3,281.4,35.6,282z"/>
			<path class="st0" d="M36.3,283.3L36.3,283.3l-0.2-0.1c-0.2-0.1-0.5-0.2-0.7-0.4c-0.2-0.1-0.3-0.2-0.4-0.4l-0.3-0.2v-0.2
				c0-0.1,0-0.3,0.3-0.4c0.3-0.2,0.4-0.5,0.5-0.8c0.1-0.3,0.3-0.7,0.7-1.1l0.3-0.2l0.3,0.4c0.1,0.2,0.3,0.3,0.4,0.4
				c0.2,0.1,0.3,0.2,0.5,0.3l0.2,0l0,0.1c0,0,0,0,0,0c0.5,0.2,1,0.2,1.5,0.2c0.6-0.1,1.5-0.2,2.1-0.9c0.1-0.1,0.2-0.3,0.3-0.5
				c0.1-0.2,0.2-0.3,0.3-0.5c0.1-0.3,0.2-0.7,0.2-1.1c0-0.6-0.1-1.1-0.4-1.6c-0.1-0.2-0.3-0.4-0.4-0.6c-0.1-0.1-0.1-0.1-0.2-0.2
				c-0.1-0.1-0.2-0.2-0.1-0.2h-0.8l0.5-0.6c0.5-0.6,1-0.9,1.5-1.1c0.2-0.1,0.3-0.2,0.5-0.3l0.3-0.2l0.2,0.2c0.2,0.2,0.4,0.4,0.6,0.7
				c0.2,0.3,0.3,0.5,0.4,0.7c0.6,1.1,0.9,2.3,0.8,3.6c-0.1,0.7-0.2,1.4-0.4,2c-0.3,0.7-0.7,1.2-1.1,1.7c-0.4,0.5-1,0.9-1.7,1.1
				c-0.6,0.3-1.3,0.5-2.1,0.5c-0.2,0-0.5,0-0.7,0C38.2,283.9,37.2,283.7,36.3,283.3z M42.9,274.4c-0.4,0.2-0.7,0.4-1,0.7
				c0.1,0.1,0.1,0.2,0.2,0.2c0,0.1,0.1,0.1,0.1,0.2c0.2,0.2,0.4,0.5,0.5,0.8c0.3,0.6,0.5,1.3,0.5,1.9c0,0.5-0.1,0.9-0.3,1.3
				c-0.1,0.2-0.2,0.4-0.3,0.6c-0.1,0.2-0.3,0.4-0.4,0.6c-0.6,0.6-1.5,1-2.6,1.1c-0.6,0-1.3,0-1.8-0.2c-0.1,0-0.1,0-0.1,0l-0.1,0
				l-0.1-0.1c0,0,0,0,0,0c-0.2-0.1-0.4-0.2-0.6-0.4c-0.1-0.1-0.2-0.2-0.3-0.3c-0.1,0.2-0.2,0.3-0.2,0.5c-0.1,0.3-0.2,0.6-0.5,0.9
				c0,0,0.1,0.1,0.2,0.1c0.2,0.1,0.4,0.2,0.6,0.3l0.1,0l0.1,0.1c1,0.4,2.1,0.6,3.3,0.5c0.7-0.1,1.3-0.2,1.8-0.5
				c0.6-0.2,1.1-0.5,1.5-0.9c0.4-0.5,0.8-0.9,1-1.5c0.2-0.5,0.3-1.1,0.4-1.8c0.1-1.1-0.2-2.2-0.7-3.2c-0.1-0.2-0.2-0.4-0.4-0.6
				c-0.1-0.1-0.2-0.3-0.3-0.4C43.1,274.3,43,274.4,42.9,274.4z"/>
		</g>
	</g>
	<g>
		<g>
			<path class="st0" d="M31.4,296.3v2.3c0,0-0.3,0-0.1,0c0.3,0,0,0,0.3-0.1c0.1,0,0.2,0,0.2,0c1.2-0.2,2.3-0.7,3.1-1.3
				c0.6-0.4,1-0.9,1.4-1.4c0.4-0.5,0.7-1.1,0.8-1.7c0.1-0.6,0.2-1.2,0.1-1.9c-0.1-0.3,0-0.6-0.2-0.9c-0.1-0.3,0-0.6-0.2-0.9
				c-0.5-0.9-1.2-1.8-1.9-2.4v0.6h-1.1c0,0,0-0.3,0-0.4c-0.2-0.1-0.4-0.5-0.6-0.6c-0.2-0.1-0.2-0.1-0.4-0.2c-0.3,0.7,0,1.4,0,2.1v0
				c-0.7,0-0.5,0-0.5,0c0.1,0-0.3,0.1-0.1,0.1c0.3,0.1,0.5,0.2,0.8,0.3c0,0,0,0,0,0c0.1,0.1,0.2,0.1,0.3,0.2c0.4,0.3,0.8,0.7,1,1.1
				c0.5,0.7,0.6,1.5,0.5,2.4c-0.1,0.8-0.6,1.5-1.3,2c-0.5,0.3-1,0.6-1.6,0.7c0,0,0,0,0,0c0,0,0.1,0,0,0c-0.3,0-0.2,0.1-0.5,0
				C31.2,296.4,31.4,296.3,31.4,296.3z"/>
			<path class="st0" d="M30.2,298.6v-2.3H31c0-0.2-0.1-0.3-0.2-0.3c0,0,0.1,0,0.2,0h0c0.2,0,0.4,0,0.5,0l0.1,0
				c0.5-0.1,1-0.3,1.4-0.6c0.5-0.3,1.1-0.9,1.2-1.8c0.1-0.8,0-1.5-0.4-2.1c-0.3-0.4-0.6-0.7-1-1c-0.1,0-0.1-0.1-0.2-0.1l-0.1-0.1
				c-0.2-0.1-0.4-0.2-0.7-0.3c-0.1,0-0.1-0.1-0.2-0.1l0,0l0,0c-0.4,0-0.5-0.3-0.4-0.4c0-0.3,0.2-0.3,0.4-0.4c0-0.7,0.1-1.3,0.4-1.9
				l0.1-0.3l0.3,0.1c0.2,0,0.3,0.1,0.4,0.1c0.1,0,0.1,0,0.2,0.1c0.2,0.1,0.4,0.2,0.5,0.3c0.1,0,0.1,0.1,0.2,0.1c0,0,0.1,0.1,0.1,0.1
				h0.1v-0.5l0.6,0.5c0.8,0.7,1.6,1.6,2.2,2.5c0.1,0.2,0.2,0.4,0.2,0.6c0,0.1,0,0.2,0.1,0.3c0.1,0.3,0.2,0.5,0.2,0.8l0,0.2
				c0.2,0.7,0.1,1.4,0,2c-0.1,0.6-0.4,1.3-0.8,1.9c-0.4,0.6-0.8,1.1-1.4,1.5c-1,0.7-2.1,1.2-3.3,1.4c-0.1,0-0.2,0-0.2,0l-0.1,0
				c-0.2,0-0.3,0.1-0.6,0.1C30.7,299,30.2,299,30.2,298.6z M33.8,288.4l-0.3-0.1l-0.1-0.2c-0.1,0-0.1-0.1-0.2-0.1
				c-0.1-0.1-0.3-0.2-0.4-0.2c-0.1,0-0.1,0-0.1-0.1c-0.1,0.4-0.2,0.9-0.2,1.5c0.2,0.1,0.3,0.1,0.5,0.2l0.1,0.1
				c0.1,0.1,0.2,0.1,0.3,0.2c0.4,0.3,0.8,0.7,1.1,1.2c0.5,0.8,0.7,1.7,0.5,2.6c-0.1,0.9-0.7,1.7-1.5,2.3c-0.5,0.4-1.1,0.6-1.6,0.7
				l-0.2,0.1c-0.3,0-0.5,0.1-0.8,0v1.5c0.1,0,0.2,0,0.4,0l0.1,0c0.1,0,0.1,0,0.2,0c1-0.2,2.1-0.6,3-1.3c0.5-0.4,0.9-0.8,1.3-1.3
				c0.4-0.5,0.6-1,0.7-1.6c0.1-0.6,0.2-1.2,0-1.7c0-0.1,0-0.2-0.1-0.3c0-0.2-0.1-0.4-0.2-0.6c-0.1-0.2-0.1-0.3-0.1-0.5
				c0-0.1,0-0.3-0.1-0.4c-0.5-0.8-1.1-1.5-1.8-2.1H33.8z"/>
		</g>
	</g>
</g>
<g>
	<g>
		<path class="st0" d="M58,269.1c0,0.3,0,0.5,0,0.8c0.8-0.1,1.5-0.2,2.3-0.2c0.5,0,1,0,1.5,0c1.5,0,2.9,0.1,4.4,0.3
			c0.8,0.1,1.5,0.2,2.3,0.4c0-0.3,0-0.5,0.1-0.8c0.1-0.3,0.2-0.5,0.3-0.8c-0.8-0.2-1.6-0.3-2.4-0.4c-1.5-0.2-3.1-0.3-4.6-0.3
			c-0.5,0-1.1,0-1.6,0c-0.8,0-1.6,0.1-2.4,0.2C57.9,268.6,58,268.8,58,269.1z M46.3,325.3c0.7,0.4,1.4,0.7,2.2,1
			c1.9,0.8,3.8,1.5,5.9,1.9c0.8,0.2,1.6,0.3,2.4,0.5c0-0.3,0-0.6,0-0.8c0-0.3,0.1-0.5,0.2-0.7c-0.8-0.1-1.5-0.3-2.2-0.4
			c-1.9-0.4-3.8-1.1-5.5-1.8c-0.7-0.3-1.4-0.6-2.1-1c-0.1,0.3-0.2,0.5-0.3,0.8C46.7,324.9,46.5,325.1,46.3,325.3z M87.6,283.4
			c0.4,0.6,0.8,1.3,1.1,1.9c0.9,1.7,1.6,3.4,2.2,5.2c0.2,0.7,0.4,1.4,0.6,2.1c0.2-0.1,0.5-0.2,0.8-0.3c0.3-0.1,0.6-0.1,0.9-0.1
			c-0.2-0.8-0.4-1.5-0.6-2.3c-0.6-1.9-1.4-3.8-2.3-5.5c-0.4-0.7-0.8-1.4-1.2-2c-0.2,0.2-0.4,0.4-0.7,0.5
			C88.1,283.2,87.8,283.3,87.6,283.4z M74.9,272.5c0.7,0.3,1.4,0.7,2,1c1.7,0.9,3.3,2,4.8,3.3c0.6,0.5,1.1,1,1.7,1.5
			c0.1-0.2,0.3-0.4,0.5-0.6c0.2-0.2,0.4-0.4,0.7-0.5c-0.6-0.6-1.1-1.1-1.8-1.6c-1.6-1.3-3.3-2.5-5.1-3.5c-0.7-0.4-1.4-0.7-2.1-1.1
			c0,0.3-0.1,0.5-0.3,0.8C75.2,272.1,75,272.3,74.9,272.5z M63.9,328.2c0,0.3,0,0.6-0.1,0.8c0.8,0,1.6-0.1,2.4-0.2
			c2.1-0.3,4.1-0.8,6-1.4c0.8-0.3,1.5-0.5,2.2-0.8c-0.2-0.2-0.3-0.4-0.4-0.7c-0.1-0.3-0.2-0.5-0.2-0.8c-0.7,0.3-1.4,0.6-2.1,0.8
			c-1.8,0.6-3.7,1.1-5.7,1.3c-0.7,0.1-1.5,0.2-2.3,0.2C63.9,327.7,63.9,327.9,63.9,328.2z M81.6,320.5c-0.6,0.5-1.2,0.9-1.8,1.4
			c0.2,0.2,0.4,0.4,0.6,0.6c0.2,0.2,0.3,0.5,0.4,0.7c0.7-0.5,1.3-0.9,1.9-1.4c1.6-1.3,3-2.7,4.3-4.3c0.5-0.6,1-1.2,1.4-1.9
			c-0.3-0.1-0.5-0.2-0.7-0.4c-0.2-0.2-0.5-0.3-0.6-0.5c-0.4,0.6-0.9,1.2-1.4,1.8C84.4,317.9,83.1,319.2,81.6,320.5z M90.1,308.9
			c0.3,0,0.5,0.1,0.8,0.2c0.3,0.1,0.5,0.2,0.8,0.4c0.3-0.7,0.5-1.5,0.8-2.2c0.6-1.9,1-3.8,1.2-5.8c0.1-0.8,0.1-1.5,0.1-2.3
			c-0.3,0.1-0.6,0.1-0.9,0.1c-0.3,0-0.6,0-0.8-0.1c0,0.7-0.1,1.5-0.1,2.2c-0.2,1.9-0.6,3.7-1.1,5.5
			C90.6,307.5,90.4,308.2,90.1,308.9z M33.7,313c0.4,0.7,0.8,1.3,1.2,2c1.1,1.7,2.4,3.2,3.8,4.7c0.6,0.6,1.1,1.1,1.7,1.6
			c0.1-0.2,0.3-0.5,0.5-0.7c0.2-0.2,0.4-0.4,0.6-0.5c-0.5-0.5-1.1-1-1.6-1.5l-0.1-0.1c-1.4-1.4-2.6-2.8-3.6-4.4c0,0,0,0,0,0
			c-0.4-0.6-0.8-1.2-1.1-1.9c0,0,0,0,0,0c0,0,0,0,0,0c-0.2,0.2-0.4,0.3-0.7,0.5C34.2,312.9,33.9,313,33.7,313z M31.4,296.3v2.3
			c0,2-0.6,3.9-0.2,5.8c0,0-0.6,0.1-0.6,0.1c0.2,0.8,0.2,1.5,0.4,2.3c0,0,0,0.1,0,0.1c0,0.1,0,0.3,0.1,0.3c0.2-0.1,0.5-0.1,0.8-0.2
			c0.3-0.1,0.5,0.3,0.8,0.3h0c-0.2-0.7,0.2-1.9,0.1-2.6c-0.4-1.8,0.1-4.2,0.1-6.1v-2.3c-0.7,0-0.4,0-0.4,0c0,0-0.4,0-0.5,0
			c-0.3,0-0.2,0.1-0.5,0C31.2,296.4,31.4,296.3,31.4,296.3z M32.3,289.5C32.4,289.6,32.1,289.6,32.3,289.5c0.2,0.2,0.5,0.3,0.7,0.4
			c0,0,0.1,0,0.1,0c0.1,0.1,0.4,0.1,0.5,0.2c0-0.1-0.2-0.1,0.5-0.2v0c0-0.7,0-1.3,0.7-2v0c0,0-0.3-0.1-0.3-0.1
			c0-0.1-0.2-0.1-0.2-0.2c0.7-1.7,1.9-3.3,2.6-4.8v0c0-0.6,1-1.2,1.7-1.7c0,0-0.3,0,0.4-0.1v0c0,0-0.7-0.1-0.8-0.1
			c-0.2-0.1-1-0.2-1.2-0.3c-0.2-0.2-0.3-0.3-0.5-0.6c-0.8,0.6-0.4,1.2-1.1,1.9c0,0,0,0,0,0c0,0-0.2,0-0.2,0c-1.1,1.6-2.2,3.4-3,5.2
			l0.2,0c0,0,0.2,0,0.2,0c-0.3,0.7,0,1.4,0,2.1v0C32.1,289.5,32.3,289.5,32.3,289.5z M41.3,275.2c0.2,0,0.4,0.4,0.6,0.6
			c0.2,0.2,0.3,0.5,0.5,0.7c0.6-0.5,1.2-0.9,1.8-1.4c1.6-1.1,3.3-2,5.1-2.8c0,0,0,0,0,0c0.7-0.3,1.4-0.6,2.1-0.8c0,0,0.1,0,0.1,0
			c-0.1-0.2-0.1-0.4-0.2-0.7c-0.1-0.3,0.2-0.6,0.2-0.8v0c-0.7,0-0.4,0.1-0.5,0.1c-0.7,0.3-1.8,0.5-2.4,0.8c0,0-0.1,0-0.1,0
			c-1.9,0.8-3.7,1.8-5.4,2.9c0,0,0,0,0,0C42.6,274.2,42,274.4,41.3,275.2z"/>
		<path class="st0" d="M63.5,329c0-0.2,0.1-0.5,0-0.7c0-0.3-0.1-0.5-0.1-0.7l-0.2-0.5l0.5,0c0.8-0.1,1.6-0.1,2.3-0.2
			c1.9-0.2,3.8-0.7,5.6-1.3c0.6-0.2,1.3-0.5,2.1-0.8l0.5-0.2l0.1,0.5c0,0.2,0.1,0.5,0.2,0.7c0.1,0.2,0.2,0.4,0.4,0.6l0.3,0.4
			l-0.4,0.2c-0.7,0.3-1.5,0.6-2.3,0.9c-2,0.7-4,1.1-6.1,1.4c-0.9,0.1-1.7,0.2-2.5,0.2l-0.5,0L63.5,329z M73.8,326
			c-0.1-0.1-0.1-0.3-0.2-0.4c-0.6,0.3-1.2,0.5-1.7,0.6c-1.9,0.6-3.8,1.1-5.8,1.3c-0.6,0.1-1.2,0.1-1.9,0.2c0,0.1,0,0.3,0.1,0.4
			c0,0.2,0,0.3,0,0.5c0.6,0,1.3-0.1,1.9-0.2c2-0.3,4-0.7,6-1.4c0.6-0.2,1.2-0.4,1.8-0.7C73.9,326.3,73.9,326.1,73.8,326z
			 M56.7,329.1c-0.8-0.1-1.6-0.3-2.4-0.5c-2.1-0.5-4.1-1.1-5.9-2c-0.8-0.3-1.5-0.7-2.2-1.1l-0.4-0.2L46,325c0.2-0.2,0.3-0.3,0.4-0.6
			l0,0c0.1-0.2,0.2-0.4,0.3-0.7l0.1-0.5l0.4,0.2c0.7,0.3,1.3,0.7,2,1c1.8,0.8,3.6,1.4,5.5,1.8c0.7,0.2,1.4,0.3,2.2,0.4l0.5,0.1
			l-0.2,0.4c-0.1,0.2-0.2,0.4-0.2,0.7c0,0.3,0,0.5,0,0.7l0.1,0.5L56.7,329.1z M54.7,327c-1.9-0.4-3.8-1.1-5.6-1.9
			c-0.6-0.3-1.1-0.5-1.7-0.8c-0.1,0.1-0.1,0.3-0.2,0.4c-0.1,0.1-0.2,0.3-0.2,0.4c0.6,0.3,1.1,0.6,1.7,0.8c1.8,0.8,3.8,1.5,5.8,1.9
			c0.7,0.2,1.3,0.3,1.9,0.4c0-0.2,0-0.3,0-0.5c0-0.1,0.1-0.3,0.1-0.4C55.8,327.3,55.2,327.2,54.7,327z M80.4,323.3
			c-0.1-0.2-0.2-0.4-0.4-0.6c-0.2-0.2-0.3-0.4-0.5-0.5l-0.4-0.3l0.4-0.3c0.6-0.5,1.2-0.9,1.8-1.4c1.5-1.2,2.8-2.6,4-4h0
			c0.5-0.6,0.9-1.1,1.3-1.8L87,314l0.3,0.4c0.2,0.2,0.4,0.3,0.6,0.5c0.2,0.1,0.4,0.2,0.7,0.3l0.5,0.2l-0.3,0.4
			c-0.5,0.7-1,1.3-1.4,1.9c-1.3,1.6-2.8,3-4.3,4.3c-0.7,0.5-1.3,1-1.9,1.5l-0.4,0.3L80.4,323.3z M87.4,315.5
			c-0.1-0.1-0.3-0.2-0.4-0.3c-0.4,0.5-0.7,1-1.1,1.4l0,0c-1.2,1.5-2.6,2.9-4.1,4.1c-0.4,0.4-0.9,0.7-1.4,1.1
			c0.1,0.1,0.2,0.2,0.3,0.3c0.1,0.1,0.2,0.2,0.3,0.4c0.5-0.4,1-0.7,1.5-1.2c1.5-1.3,3-2.7,4.2-4.2c0.4-0.5,0.8-1,1.1-1.5
			C87.7,315.6,87.6,315.5,87.4,315.5z M40.2,321.6c-0.6-0.5-1.2-1.1-1.8-1.6c-1.4-1.4-2.8-3-3.9-4.7c-0.4-0.6-0.9-1.3-1.3-2
			l-0.2-0.4l0.5-0.1c0.2-0.1,0.5-0.1,0.7-0.3l0,0c0.2-0.1,0.4-0.3,0.6-0.5l0.6-0.6l0,0.7c0.3,0.6,0.6,1.1,1,1.6l0.2,0v0.3
			c1,1.5,2.2,3,3.5,4.3l0.1,0.1c0.5,0.5,1,1,1.6,1.4l0.4,0.3l-0.4,0.3c-0.2,0.1-0.4,0.3-0.5,0.5c-0.2,0.2-0.3,0.4-0.4,0.6l-0.2,0.4
			L40.2,321.6z M39.8,318.9L39.8,318.9c-1.4-1.4-2.6-2.8-3.7-4.4l-0.1-0.2c-0.3-0.5-0.6-1-0.9-1.5c-0.1,0.1-0.3,0.2-0.4,0.3
			c-0.1,0.1-0.3,0.1-0.4,0.2c0.3,0.5,0.7,1.1,1,1.6c1.1,1.7,2.4,3.2,3.8,4.6c0.5,0.5,0.9,0.9,1.4,1.3c0.1-0.1,0.2-0.2,0.3-0.4
			c0.1-0.1,0.2-0.2,0.3-0.3C40.6,319.7,40.2,319.3,39.8,318.9z M91.5,309.7c-0.2-0.1-0.4-0.2-0.7-0.3c-0.2-0.1-0.5-0.1-0.7-0.2
			l-0.5-0.1l0.2-0.4c0.3-0.7,0.5-1.4,0.7-2.1l0,0c0.5-1.7,0.9-3.6,1.1-5.4c0.1-0.8,0.1-1.5,0.1-2.2l0-0.5l0.5,0.1
			c0.2,0.1,0.5,0.1,0.7,0.1c0.2,0,0.5,0,0.7-0.1l0.5-0.1l0,0.5c0,0.8-0.1,1.6-0.1,2.4c-0.2,2-0.6,4-1.2,5.9
			c-0.2,0.7-0.5,1.5-0.8,2.2l-0.2,0.5L91.5,309.7z M92.9,299.6c-0.1,0-0.3,0-0.4,0c0,0.6-0.1,1.1-0.1,1.8c-0.2,1.9-0.6,3.8-1.1,5.6
			c-0.2,0.6-0.4,1.1-0.6,1.7c0.1,0,0.3,0.1,0.4,0.1c0.2,0.1,0.3,0.1,0.4,0.2c0.2-0.6,0.4-1.2,0.6-1.8c0.6-1.8,1-3.8,1.2-5.8
			c0.1-0.6,0.1-1.2,0.1-1.8C93.2,299.6,93.1,299.6,92.9,299.6z M30.7,307.1l-0.1-0.3c-0.1-0.4-0.2-0.9-0.2-1.3c0-0.3-0.1-0.6-0.1-1
			c0-0.1,0-0.2,0.1-0.3c-0.2-1.4-0.2-2.7-0.2-4.1c0-0.5,0-1,0-1.4v-2.3H31c0-0.2-0.1-0.3-0.2-0.3c0,0,0.1,0,0.2,0h0
			c0.2,0,0.4,0,0.6,0c0,0,0.1,0,0.2,0l0.1,0c0.1,0,0.2,0,0.3,0l0.4,0v2.7c0,0.4,0,0.7,0,1.1c0,1.5,0,3.1,0.3,4.5
			c0.1,0.3,0.1,0.7,0.1,1c0,0.4,0,0.8,0.1,1.2l0.1,0.5h-0.5c-0.3,0-0.5,0-0.7,0.1c-0.1,0-0.2,0.1-0.3,0.1c-0.1,0.1-0.3,0.2-0.5,0.2
			l-0.4,0.1L30.7,307.1z M32.1,305.3c0-0.3,0-0.7-0.1-0.9c-0.3-1.5-0.3-3.1-0.3-4.7c0-0.4,0-0.7,0-1.1v-1.9c-0.3,0-0.5,0.1-0.8,0
			v1.9c0,0.5,0,1,0,1.5c0,1.5-0.1,2.9,0.2,4.3c0,0.1,0,0.2-0.1,0.3c0,0.2,0.1,0.5,0.1,0.7c0,0.4,0.1,0.7,0.2,1.1
			c0.1-0.1,0.2-0.1,0.4-0.2c0.1,0,0.3-0.1,0.5-0.1C32.2,305.9,32.1,305.6,32.1,305.3z M91.1,292.7c-0.2-0.7-0.3-1.4-0.5-2.1
			c-0.5-1.8-1.3-3.5-2.2-5.2c-0.3-0.6-0.7-1.2-1.1-1.9l-0.3-0.4l0.5-0.1c0.2-0.1,0.5-0.2,0.7-0.3c0.2-0.1,0.4-0.3,0.6-0.5l0.3-0.4
			l0.3,0.4c0.4,0.6,0.8,1.3,1.2,2c1,1.8,1.8,3.7,2.3,5.6c0.2,0.7,0.4,1.4,0.6,2.3l0.1,0.5l-0.5,0c-0.2,0-0.5,0-0.7,0.1
			c-0.3,0.1-0.5,0.1-0.7,0.2l-0.5,0.2L91.1,292.7z M92.1,290.2c-0.6-1.9-1.3-3.7-2.3-5.4c-0.3-0.6-0.6-1.1-0.9-1.6
			c-0.1,0.1-0.2,0.2-0.4,0.3l0,0c-0.1,0.1-0.3,0.1-0.4,0.2c0.3,0.5,0.6,1,0.9,1.6c0.9,1.7,1.7,3.5,2.2,5.3c0.2,0.6,0.3,1.1,0.5,1.7
			c0.1,0,0.3-0.1,0.4-0.1c0.2,0,0.3-0.1,0.5-0.1C92.5,291.3,92.3,290.7,92.1,290.2z M33.2,290.5c0,0-0.1-0.1-0.2-0.1
			c0,0-0.1,0-0.1,0l-0.2-0.1c-0.2-0.1-0.5-0.2-0.7-0.3c-0.1,0-0.1-0.1-0.2-0.1l0,0l0,0c-0.4,0-0.5-0.3-0.5-0.4
			c0-0.2,0.2-0.3,0.4-0.4c0-0.6,0.1-1,0.2-1.5l-0.3,0l0.2-0.5c0.8-1.9,1.8-3.7,2.9-5.3l0,0c0-0.1,0.1-0.1,0.2-0.1
			c0.3-0.2,0.4-0.5,0.5-0.8c0.1-0.3,0.3-0.7,0.7-1.1l0.3-0.2l0.3,0.4c0.1,0.2,0.3,0.3,0.4,0.4c0.1,0,0.3,0.1,0.4,0.2
			c0.1,0,0.3,0.1,0.3,0.1c0,0,0.1,0,0.2,0c0.2,0,0.5,0.1,0.5,0.4v0.4l-0.2,0l-0.1,0.1c-0.5,0.4-1.2,0.9-1.2,1.3v0.1l0,0.1
			c-0.3,0.5-0.6,1.1-0.9,1.7c-0.5,0.9-1.1,1.9-1.5,2.9c0.1,0.1,0.2,0.2,0.2,0.3v0.2l-0.1,0.1c-0.6,0.5-0.6,1.1-0.6,1.7v0.3l-0.3,0
			l-0.2,0.5L33.2,290.5z M33.9,288c0,0,0-0.1,0-0.1v0c0-0.1,0-0.2,0-0.3c0.5-1.1,1.1-2.1,1.6-3.2c0.3-0.5,0.6-1.1,0.9-1.6
			c0-0.6,0.5-1.1,1.1-1.5c0,0,0,0-0.1,0c-0.2-0.1-0.5-0.2-0.6-0.3c-0.1-0.1-0.2-0.2-0.3-0.3c-0.1,0.2-0.2,0.3-0.2,0.5
			c-0.1,0.3-0.3,0.7-0.7,1.1c0,0-0.1,0.1-0.2,0.1c-1,1.4-1.8,3-2.5,4.6l0.2,0l-0.1,0.3v0.1l0,0.1c-0.2,0.5-0.3,1.1-0.3,1.9
			c0.2,0.1,0.4,0.2,0.5,0.2l0.1,0c0,0,0,0,0,0c0,0,0,0,0.1,0C33.3,289.1,33.4,288.6,33.9,288z M83.1,278.6c-0.5-0.5-1.1-1-1.6-1.5
			c-1.5-1.2-3.1-2.3-4.7-3.2c-0.8-0.4-1.4-0.7-2-1l-0.5-0.2l0.3-0.4c0.2-0.2,0.3-0.4,0.4-0.6l0,0c0.1-0.2,0.2-0.5,0.2-0.7l0.1-0.5
			l0.5,0.2c0.7,0.3,1.4,0.7,2.2,1.1c1.8,1,3.5,2.2,5.1,3.5c0.7,0.6,1.3,1.1,1.8,1.6l0.3,0.3l-0.4,0.2c-0.2,0.1-0.4,0.3-0.6,0.4
			c-0.2,0.2-0.3,0.4-0.5,0.6l-0.3,0.4L83.1,278.6z M82.5,275.9c-1.6-1.3-3.2-2.4-5-3.4c-0.6-0.3-1.2-0.6-1.7-0.9
			c0,0.1-0.1,0.3-0.2,0.4l0,0c-0.1,0.1-0.1,0.2-0.2,0.4c0.5,0.2,1,0.5,1.6,0.8c1.7,0.9,3.3,2,4.9,3.3c0.5,0.4,0.9,0.8,1.4,1.2
			c0.1-0.1,0.2-0.2,0.3-0.3c0.1-0.1,0.2-0.2,0.3-0.3C83.5,276.7,83.1,276.3,82.5,275.9z M42,276.6c-0.1-0.2-0.2-0.4-0.4-0.6
			c-0.1-0.1-0.1-0.1-0.2-0.2c-0.1-0.1-0.2-0.2-0.1-0.2h-0.8l0.5-0.6c0.5-0.6,1-0.9,1.5-1.1c0.1-0.1,0.2-0.1,0.4-0.2l0-0.2h0.3
			c1.5-1,3.3-2,5.3-2.9l0.2,0.3l-0.1-0.4c0.5-0.2,1-0.4,1.6-0.6c0.2-0.1,0.4-0.1,0.6-0.2c0.1-0.2,0.4-0.2,0.8-0.2l0.4,0v0.4
			c0,0.2,0,0.3-0.1,0.4c0,0.1-0.1,0.2-0.1,0.3c0.1,0.1,0.1,0.3,0.1,0.4c0,0.1,0,0.2,0.1,0.3l0.2,0.3l-0.4,0.2c-0.1,0-0.1,0-0.1,0
			c-0.5,0.2-1.4,0.5-2.1,0.8l-0.1,0c-1.8,0.8-3.4,1.7-5,2.7c-0.7,0.5-1.3,0.9-1.8,1.3l-0.4,0.3L42,276.6z M51.1,271.2
			C51.1,271.2,51.1,271.1,51.1,271.2c0-0.2,0-0.2-0.1-0.3c-0.1-0.2-0.1-0.3,0-0.4c-0.2,0.1-0.4,0.1-0.6,0.2
			c-0.5,0.2-1.1,0.3-1.5,0.5l-0.2-0.3l0.1,0.4c-2,0.9-3.7,1.8-5.2,2.8l-0.2,0.1c0,0,0,0-0.1,0l0,0c-0.2,0.1-0.3,0.2-0.5,0.3
			c-0.4,0.2-0.7,0.4-1,0.7c0.1,0.1,0.1,0.2,0.2,0.2c0,0.1,0.1,0.1,0.1,0.2c0.1,0.1,0.2,0.2,0.3,0.4c0.5-0.4,0.9-0.7,1.5-1.1
			c1.6-1.1,3.4-2,5.2-2.8l0.1,0C49.9,271.6,50.6,271.4,51.1,271.2z M68.4,270.7c-0.8-0.2-1.5-0.3-2.2-0.4c-1.9-0.3-3.9-0.3-5.8-0.3
			c-0.8,0-1.6,0.1-2.3,0.2l-0.5,0.1l0.1-0.5c0-0.2,0-0.5,0-0.7c0-0.3-0.1-0.5-0.2-0.7l-0.2-0.5l0.5-0.1c0.9-0.1,1.7-0.2,2.5-0.2
			c2.1-0.1,4.2,0,6.3,0.3c0.8,0.1,1.6,0.3,2.4,0.4l0.5,0.1l-0.2,0.4c-0.1,0.2-0.2,0.4-0.3,0.7c-0.1,0.2-0.1,0.5-0.1,0.7v0.5
			L68.4,270.7z M66.4,268.8c-2-0.3-4.1-0.4-6.1-0.3c-0.6,0-1.2,0.1-1.9,0.1c0,0.1,0.1,0.3,0.1,0.5c0,0.1,0,0.3,0,0.4
			c0.6-0.1,1.2-0.1,1.9-0.1c2-0.1,4,0,5.9,0.3c0.6,0.1,1.2,0.2,1.8,0.3c0-0.1,0-0.3,0.1-0.4c0-0.1,0.1-0.3,0.1-0.4
			C67.7,269,67,268.8,66.4,268.8z"/>
	</g>
</g>
<g>
	<path class="st0" d="M177,258.8c14.1-7.8,30.3-11.9,46.7-11.9c13.7,0,27,2.8,39.3,8.3l1.1-2.3c-12.7-5.6-26.3-8.5-40.4-8.5
		c-16.9,0-33.5,4.2-48,12.3L177,258.8z"/>
</g>
<g>
	<path class="st0" d="M223.7,427.7c53,0,96.1-41.1,96.1-91.7c0-22.7-8.7-44.4-24.6-61.3l-2,1.7c15.4,16.4,23.9,37.5,23.9,59.6
		c0,49.2-41.9,89.2-93.4,89.2c-51.5,0-93.4-40-93.4-89.2c0-14.8,3.9-29.5,11.3-42.5l-2.3-1.2c-7.6,13.3-11.6,28.4-11.6,43.7
		C127.7,386.6,170.7,427.7,223.7,427.7z"/>
</g>
<g>
	<path class="st0" d="M184.8,262.2c12.1-5.8,25.2-8.8,38.9-8.8c10.9,0,21.5,1.9,31.5,5.6l1.1-2.7c-10.4-3.9-21.4-5.8-32.6-5.8
		c-14.2,0-27.7,3.1-40.3,9.1L184.8,262.2z"/>
</g>
<g>
	<path class="st0" d="M223.7,421.6c49.4,0,89.6-38.4,89.6-85.6c0-21.4-8.3-41.8-23.4-57.6l-2.2,1.9c14.6,15.3,22.6,35,22.6,55.7
		c0,45.6-38.8,82.7-86.6,82.7c-47.8,0-86.6-37.1-86.6-82.7c0-12.3,2.8-24.2,8.2-35.3l-2.7-1.2c-5.7,11.5-8.5,23.7-8.5,36.5
		C134.1,383.2,174.3,421.6,223.7,421.6z"/>
</g>
<g>
	<path class="st0" d="M223.8,427.7c10.5,0,21.2-1.7,31.7-5.2c22.4-7.5,41-22.6,52.4-42.4l-2.3-1.2c-11.1,19.3-29.2,34-50.9,41.3
		c-48.6,16.3-102-8.2-119.1-54.6c-8.3-22.5-6.9-46.7,3.9-68.1c10.8-21.5,29.7-37.6,53.2-45.5c14.7-4.9,30.5-6.3,45.7-3.9l0.4-2.5
		c-15.7-2.4-32-1-47,4c-24.2,8.1-43.7,24.7-54.8,46.8c-11.1,22.1-12.5,47-4,70.1C147,404.1,184.2,427.7,223.8,427.7z"/>
</g>
<g>
	<path class="st0" d="M223.7,421.6c10,0,20-1.6,29.8-4.9c21.1-7.1,38.6-21.3,49.2-40.2l-2.7-1.4c-10.2,18.2-27.1,32-47.6,38.8
		c-21.8,7.3-45.3,6.1-66.2-3.5c-20.9-9.6-36.6-26.3-44.2-47.1c-14.4-39.1,4-82.7,42.8-101.2l-1.4-2.6
		c-40.1,19.2-59.2,64.3-44.3,104.8c7.9,21.6,24.2,38.9,45.8,48.8C197.2,418.8,210.4,421.6,223.7,421.6z"/>
</g>
<g>
	<path class="st0" d="M189.6,264.2c10.7-4.6,22.2-7,34.1-7c9,0,17.9,1.4,26.4,4.1l0.9-2.6c-8.8-2.8-17.9-4.2-27.3-4.2
		c-12.3,0-24.2,2.4-35.3,7.3L189.6,264.2z"/>
</g>
<g>
	<path class="st0" d="M223.7,417.6c47.1,0,85.5-36.6,85.5-81.6c0-20.7-8.2-40.5-23-55.7l-2.1,1.9c14.3,14.6,22.2,33.8,22.2,53.8
		c0,43.5-37.1,78.9-82.6,78.9s-82.6-35.4-82.6-78.9c0-13.6,3.7-26.9,10.6-38.7l-2.5-1.4c-7.2,12.2-11,26-11,40
		C138.2,381,176.6,417.6,223.7,417.6z"/>
</g>
<g>
	<path class="st0" d="M68,373c0-6.7,5.7-12.1,12.7-12.1c7,0,12.7,5.4,12.7,12.1c0,6.7-5.7,12.1-12.7,12.1
		C73.6,385.1,68,379.7,68,373z M70.2,373c0,5.5,4.7,10,10.4,10c5.7,0,10.4-4.5,10.4-10c0-5.5-4.7-10-10.4-10
		C74.9,363.1,70.2,367.6,70.2,373z"/>
</g>
<g>
	<path class="st0" d="M45.3,373.1c0-2.8,2.4-5.1,5.3-5.1s5.3,2.3,5.3,5.1c0,2.8-2.4,5.1-5.3,5.1S45.3,375.9,45.3,373.1z M47.5,373.1
		c0,1.6,1.4,3,3.1,3c1.7,0,3.1-1.3,3.1-3c0-1.6-1.4-3-3.1-3C48.9,370.1,47.5,371.4,47.5,373.1z"/>
</g>
<g>
	<path class="st0" d="M348.9,393.8c0-3.6,3.1-6.5,6.8-6.5c3.8,0,6.8,2.9,6.8,6.5c0,3.6-3.1,6.5-6.8,6.5
		C352,400.3,348.9,397.3,348.9,393.8z M351.3,393.8c0,2.4,2,4.3,4.5,4.3c2.5,0,4.5-1.9,4.5-4.3s-2-4.3-4.5-4.3
		C353.3,389.5,351.3,391.4,351.3,393.8z"/>
</g>
<g>
	<path class="st0" d="M89.8,398.7c0-2.8,2.4-5.1,5.3-5.1c2.9,0,5.3,2.3,5.3,5.1s-2.4,5.1-5.3,5.1S89.8,401.5,89.8,398.7z
		 M92.1,398.7c0,1.6,1.4,3,3.1,3c1.7,0,3.1-1.3,3.1-3s-1.4-3-3.1-3C93.5,395.8,92.1,397.1,92.1,398.7z"/>
</g>
<g>
	<path class="st0" d="M89.8,348.6c0-2.8,2.4-5.1,5.3-5.1s5.3,2.3,5.3,5.1s-2.4,5.1-5.3,5.1S89.8,351.4,89.8,348.6z M92.1,348.6
		c0,1.6,1.4,3,3.1,3c1.7,0,3.1-1.3,3.1-3s-1.4-3-3.1-3C93.5,345.6,92.1,347,92.1,348.6z"/>
</g>
<g>
	<path class="st0" d="M71.5,373c0-4.8,4.1-8.7,9.1-8.7c5,0,9.1,3.9,9.1,8.7c0,4.8-4.1,8.7-9.1,8.7C75.6,381.8,71.5,377.9,71.5,373z
		 M73.7,373c0,3.6,3.1,6.6,6.9,6.6c3.8,0,6.9-3,6.9-6.6s-3.1-6.6-6.9-6.6C76.8,366.4,73.7,369.4,73.7,373z"/>
</g>
<g>
	<path class="st0" d="M52.9,298.6c0-4.8,4.1-8.7,9.1-8.7c5,0,9.1,3.9,9.1,8.7s-4.1,8.7-9.1,8.7C57,307.3,52.9,303.4,52.9,298.6z
		 M55.1,298.6c0,3.6,3.1,6.6,6.9,6.6s6.9-3,6.9-6.6c0-3.6-3.1-6.6-6.9-6.6S55.1,294.9,55.1,298.6z"/>
</g>
<g>
	<path class="st0" d="M259.5,337.6c0-6.8,5.8-12.4,13-12.4c7.2,0,13,5.6,13,12.4c0,6.8-5.8,12.4-13,12.4
		C265.3,350,259.5,344.5,259.5,337.6z M262.3,337.6c0,5.3,4.5,9.6,10.1,9.6c5.6,0,10.1-4.3,10.1-9.6c0-5.3-4.5-9.6-10.1-9.6
		C266.9,328,262.3,332.3,262.3,337.6z"/>
</g>
<g>
	<path class="st0" d="M260.9,318c7.2,0,13-5.6,13-12.4c0-3.3-1.3-6.4-3.8-8.8l-2,1.9c1.9,1.8,3,4.2,3,6.8c0,5.3-4.5,9.6-10.1,9.6
		c-1.8,0-3.5-0.5-5.1-1.3l-1.5,2.4C256.3,317.4,258.6,318,260.9,318z"/>
</g>
<g>
	<path class="st0" d="M213.8,382.5c0-6.8,5.8-12.4,13-12.4c7.2,0,13,5.6,13,12.4c0,6.8-5.8,12.4-13,12.4
		C219.6,394.9,213.8,389.4,213.8,382.5z M216.7,382.5c0,5.3,4.5,9.6,10.1,9.6c5.6,0,10.1-4.3,10.1-9.6c0-5.3-4.5-9.6-10.1-9.6
		C221.2,372.9,216.7,377.2,216.7,382.5z"/>
</g>
<g>
	<path class="st0" d="M178.5,370.6c0-6.8,5.8-12.4,13-12.4c7.2,0,13,5.6,13,12.4c0,6.8-5.8,12.4-13,12.4
		C184.4,382.9,178.5,377.4,178.5,370.6z M181.4,370.6c0,5.3,4.5,9.6,10.1,9.6c5.6,0,10.1-4.3,10.1-9.6c0-5.3-4.5-9.6-10.1-9.6
		C185.9,360.9,181.4,365.2,181.4,370.6z"/>
</g>
<g>
	<path class="st0" d="M245.8,368.5c0-6.8,5.8-12.4,13-12.4c7.2,0,13,5.6,13,12.4c0,6.8-5.8,12.4-13,12.4
		C251.6,380.9,245.8,375.3,245.8,368.5z M248.7,368.5c0,5.3,4.5,9.6,10.1,9.6c5.6,0,10.1-4.3,10.1-9.6c0-5.3-4.5-9.6-10.1-9.6
		C253.2,358.8,248.7,363.2,248.7,368.5z"/>
</g>
<g>
	<path class="st0" d="M268.7,461.2l-9.2-31.6c-1-3.3,0.8-6.8,4.1-8.2c17.7-7.4,32.6-19.6,43.1-35.2c2-3,7.5-5.1,11-3.4l25.9,6.3
		c1.4,0.3,2.4,1.7,2.2,3.1c-0.2,1-0.2,2.1,0,3.1c0.8,4.5,5,8,9.8,8.1l0,1.1l0.1-1.1c1,0,1.8,0.5,2.3,1.3c0.5,0.8,0.5,1.7,0,2.5
		c-17.4,28.9-46.7,50.4-80.3,58.9c-0.6,0.2-1.2,0.2-1.8,0.2C272.6,466.3,269.6,464.3,268.7,461.2z M308.6,387.4
		c-10.7,16-25.9,28.4-44.1,36c-2.2,0.9-3.4,3.3-2.8,5.6l9.2,31.6l0,0c0.7,2.5,3.4,4,6,3.3c33-8.4,61.8-29.4,78.9-57.8
		c0.1-0.1,0.1-0.2,0-0.3c0-0.1-0.1-0.2-0.3-0.2l-0.1,0c-5.9-0.1-11.1-4.4-12-10c-0.2-1.3-0.2-2.6,0-3.8c0-0.3-0.1-0.5-0.4-0.6
		l-26-6.3l-0.2,0l-0.1-0.1c-0.5-0.3-1.2-0.4-1.8-0.4C312.6,384.4,309.7,385.8,308.6,387.4z"/>
</g>
<g>
	<path class="st0" d="M242.5,232.3c-1.3-1.2-2-2.9-2-4.6c0-1.7,0.7-3.4,2-4.6c1.3-1.2,3-1.9,4.8-1.9c0,0,0,0,0,0
		c1.8,0,3.5,0.7,4.8,1.9c1.3,1.2,2,2.9,2,4.6c0,1.7-0.7,3.4-2,4.6h0c-1.3,1.2-3.1,1.9-4.8,1.9C245.6,234.3,243.8,233.6,242.5,232.3z
		 M244.2,224.7c-0.9,0.8-1.3,1.9-1.3,3c0,1.1,0.5,2.2,1.3,3c1.7,1.7,4.6,1.7,6.3,0l0,0c0.9-0.8,1.3-1.9,1.3-3c0-1.1-0.5-2.2-1.3-3
		c-0.8-0.8-2-1.3-3.2-1.3c0,0,0,0,0,0C246.1,223.5,245,223.9,244.2,224.7z"/>
</g>
<g>
	<g>
		<path class="st0" d="M117,253.8c-2.7-2.4-2.9-6.6-0.4-9.2c2.6-2.6,6.9-2.8,9.6-0.3c1.3,1.2,2.1,2.8,2.2,4.5
			c0.1,1.7-0.6,3.4-1.8,4.7c-1.3,1.4-3.2,2.1-5,2.1C120,255.6,118.3,255,117,253.8z M118.3,246.2c-1.7,1.7-1.6,4.4,0.2,6
			c1.8,1.6,4.7,1.5,6.3-0.2l0,0c0.8-0.8,1.2-1.9,1.2-3.1c0-1.1-0.6-2.2-1.4-3c-0.9-0.8-2-1.1-3-1.1
			C120.4,244.8,119.2,245.3,118.3,246.2z"/>
	</g>
	<g>
		<path class="st0" d="M134.2,276.7l-38.2-20.6c-2.3-1.2-3.5-3.6-3.2-6.1c0.4-2.5,2.2-4.5,4.7-5.1c3.7-0.9,7.5-1.8,11.3-2.7
			c1-0.2,2,0.1,2.7,0.8c0.7,0.7,0.9,1.7,0.5,2.7c-1.6,3.9-0.3,8.3,3.1,10.9c2.2,1.7,4.9,2.4,7.7,2.1c2.8-0.3,5.2-1.7,6.9-3.8
			c3.1-4,2.4-9.9-1.5-13.1l0.8-0.8l-0.8,0.8c-0.7-0.6-1-1.5-0.8-2.4c0.2-0.9,0.9-1.5,1.8-1.7c6.1-1.4,12.2-2.7,18.1-3.9
			c12.3-2.6,24-4.8,34.9-6.8c5.5-1,10.8,2.2,12.3,7.3l0.5,1.6c1.1,3.8-0.1,7.7-3.2,10.3l0,0c-1,0.8-2.1,1.5-3.3,1.9
			c-14.9,5.5-28.2,14.5-38.7,26.1c-2.4,2.7-5.9,4.1-9.5,4.1C138.2,278.2,136.1,277.7,134.2,276.7z M190.2,244.5
			c2.4-2,3.3-5.1,2.5-8.1l-0.5-1.6c-1.2-4-5.3-6.5-9.6-5.8c-10.9,1.9-22.6,4.2-34.8,6.7c-5.9,1.2-12,2.5-18.1,3.9c0,0-0.1,0-0.1,0.1
			c0,0.1,0,0.1,0.1,0.2l0.1,0.1c4.9,4,5.8,11.1,1.9,16.1c-2.1,2.6-5.1,4.3-8.5,4.7c-3.4,0.4-6.8-0.5-9.4-2.6
			c-4.2-3.2-5.7-8.6-3.8-13.4c0.1-0.2,0-0.3-0.1-0.4c-0.1-0.1-0.2-0.2-0.4-0.1c-3.8,0.9-7.5,1.8-11.3,2.7c-2,0.5-2.8,2-3,3.2
			c-0.2,1.3,0.3,2.9,2,3.9l38.2,20.6c4.1,2.2,9.5,1.3,12.6-2.1c10.7-11.8,24.4-21,39.6-26.7C188.6,245.6,189.4,245.1,190.2,244.5
			L190.2,244.5z"/>
	</g>
</g>
<g>
	<path class="st0" d="M356.5,309.1c-1.8-0.2-3.4-1-4.6-2.3c-1.2-1.3-1.7-3-1.5-4.7c0.2-1.7,1-3.3,2.4-4.4c1.4-1.1,3.2-1.6,5-1.5
		c1.8,0.2,3.4,1,4.6,2.3c1.2,1.3,1.7,3,1.5,4.7c-0.2,1.7-1,3.3-2.4,4.4c-1.2,1-2.8,1.5-4.3,1.5C356.9,309.1,356.7,309.1,356.5,309.1
		z M354.3,299.3c-0.9,0.7-1.5,1.8-1.6,2.9c-0.1,1.1,0.3,2.2,1,3.1c0.8,0.9,1.8,1.4,3,1.5c1.2,0.1,2.4-0.2,3.3-1
		c0.9-0.7,1.5-1.8,1.6-2.9c0.1-1.1-0.3-2.2-1-3.1c-0.8-0.9-1.8-1.4-3-1.5c-0.1,0-0.3,0-0.4,0C356.1,298.3,355.1,298.7,354.3,299.3z"
		/>
</g>
<g>
	<path class="st0" d="M219,164c-6.6-6.3-6.6-16.5,0-22.8l26.6-25.4l0,0c3.2-3,7.4-4.7,11.9-4.7c0,0,0,0,0,0c4.5,0,8.8,1.7,11.9,4.7
		l23.9,22.8l-50.5,48.2L219,164z M267.9,117.4c-2.8-2.6-6.4-4.1-10.3-4.1c0,0,0,0,0,0c-3.9,0-7.5,1.4-10.3,4.1l-26.6,25.4
		c-5.7,5.4-5.7,14.2,0,19.7l22.2,21.2l47.2-45L267.9,117.4z"/>
</g>
<g>
	<path class="st0" d="M164.4,315.8c0-17.6,15-31.9,33.4-31.9s33.4,14.3,33.4,31.9c0,17.6-15,31.9-33.4,31.9S164.4,333.4,164.4,315.8
		z M167.2,315.8c0,16.1,13.7,29.2,30.6,29.2c16.9,0,30.6-13.1,30.6-29.2c0-16.1-13.7-29.2-30.6-29.2
		C180.9,286.6,167.2,299.7,167.2,315.8z"/>
</g>
<g>
	<path class="st0" d="M158.4,315.8c0-20.7,17.6-37.5,39.3-37.5c21.7,0,39.3,16.8,39.3,37.5c0,20.7-17.6,37.5-39.3,37.5
		C176.1,353.3,158.4,336.5,158.4,315.8z M161.7,315.8c0,19,16.2,34.4,36,34.4c19.9,0,36-15.4,36-34.4c0-19-16.2-34.4-36-34.4
		C177.9,281.4,161.7,296.8,161.7,315.8z"/>
</g>
<g>
	<path class="st0" d="M184.7,315.2c0-6.8,5.8-12.4,13-12.4c7.2,0,13,5.6,13,12.4c0,3.3-1.4,6.4-3.8,8.8c-2.5,2.3-5.7,3.6-9.2,3.6
		C190.6,327.6,184.7,322,184.7,315.2z M188,315.2c0,5.1,4.4,9.3,9.7,9.3c2.6,0,5-1,6.9-2.7c1.8-1.7,2.8-4.1,2.8-6.5
		c0-5.1-4.4-9.3-9.7-9.3C192.4,305.9,188,310.1,188,315.2z"/>
</g>
<g>
	<path class="st0" d="M178.5,314.7c0-10.1,8.6-18.4,19.2-18.4c10.6,0,19.2,8.2,19.2,18.4s-8.6,18.4-19.2,18.4
		C187.1,333.1,178.5,324.9,178.5,314.7z M181.4,314.7c0,8.6,7.3,15.6,16.3,15.6c9,0,16.3-7,16.3-15.6c0-8.6-7.3-15.6-16.3-15.6
		C188.8,299.2,181.4,306.2,181.4,314.7z"/>
</g>
<g>
	<path class="st0" d="M145.1,315.7c0-28,23.9-50.8,53.2-50.8c29.3,0,53.2,22.8,53.2,50.8c0,28-23.9,50.8-53.2,50.8
		C169,366.5,145.1,343.7,145.1,315.7z M147.9,315.7c0,26.5,22.6,48.1,50.4,48.1s50.4-21.6,50.4-48.1c0-26.5-22.6-48.1-50.4-48.1
		C170.5,267.6,147.9,289.2,147.9,315.7z"/>
</g>
<g>
	<path class="st0" d="M223.7,383.9c27.6,0,50.1-21.5,50.1-47.8c0-11.1-4.1-22-11.5-30.5l-2.2,1.7c7,8.1,10.9,18.3,10.9,28.8
		c0,24.9-21.2,45.2-47.3,45.2c-15.1,0-29.4-7-38.3-18.6l-2.3,1.6C192.6,376.5,207.7,383.9,223.7,383.9z"/>
</g>
<g>
	<path class="st0" d="M224.5,398.8c36.5,0,66.2-28.4,66.2-63.2c0-15.4-5.9-30.3-16.6-41.8l-2.8,2.3c10.1,10.9,15.7,24.9,15.7,39.5
		c0,32.9-28,59.7-62.5,59.7c-28.4,0-53.3-18.3-60.5-44.5l-3.6,0.9C168,379.4,194.4,398.8,224.5,398.8z"/>
</g>
<g>
	<path class="st0" d="M272.5,383.6l1-0.9l39.1,37.3l-1,0.9L272.5,383.6z M223.6,336.9l1-0.9l39.1,37.3l-1,0.9L223.6,336.9z
		 M174.7,290.3l1-0.9l39.1,37.3l-1,0.9L174.7,290.3z M157.1,273.5l1-0.9l7.9,7.5l-1,0.9L157.1,273.5z"/>
</g>
<g>
	<path class="st0" d="M141,418.4l38.7-37l1,0.9l-38.7,37L141,418.4z M189.4,372.2l38.7-37l1,0.9l-38.7,37L189.4,372.2z M237.8,326
		l38.7-37l1,0.9l-38.7,37L237.8,326z M286.2,279.8l6.3-6l1,0.9l-6.3,6L286.2,279.8z"/>
</g>
<g>
	<path class="st0" d="M104.1,336.9h58.6v1.4h-58.6V336.9z M177.3,336.9l58.6,0v1.4l-58.6,0V336.9z M250.6,336.9h58.6v1.4h-58.6
		V336.9z M323.9,336.9h25.6v1.4h-25.6V336.9z"/>
</g>
<g>
	<path class="st0" d="M226,431.5h1.5v23.3H226V431.5z M226,361.5h1.5v56H226V361.5z M226,291.6h1.5v56H226V291.6z M226,221.7h1.5v56
		H226V221.7z"/>
</g>
<g>
	<path class="st0" d="M45.1,299c0-8.8,7.5-16,16.7-16c9.2,0,16.7,7.2,16.7,16c0,8.8-7.5,16-16.7,16C52.6,314.9,45.1,307.8,45.1,299z
		 M46.8,299c0,7.9,6.8,14.4,15.1,14.4s15.1-6.5,15.1-14.4c0-7.9-6.8-14.4-15.1-14.4S46.8,291.1,46.8,299z"/>
</g>
<g>
	<path class="st0" d="M36.8,298.8c0-13.1,11.2-23.8,24.9-23.8c13.7,0,24.9,10.7,24.9,23.8c0,13.1-11.2,23.8-24.9,23.8
		C48,322.6,36.8,311.9,36.8,298.8z M39,298.8c0,12,10.2,21.7,22.8,21.7c12.6,0,22.8-9.7,22.8-21.7c0-12-10.2-21.7-22.8-21.7
		C49.2,277.1,39,286.8,39,298.8z"/>
</g>
<g>
	<g>
		<path class="st0" d="M5.7,266.2l10.8,0l0,18.9l-10.8,0L5.7,266.2z M14.2,268.4l-6.2,0l0,14.4l6.2,0L14.2,268.4z"/>
	</g>
	<g>
		<path class="st0" d="M0.8,270.5l15.5,0l0,9.8l-15.4,0L0.8,270.5z M13.8,272.8l-10.6,0l0,5.1l10.6,0L13.8,272.8z"/>
	</g>
</g>
<g>
	<path class="st0" d="M275.6,235.8l129-123.2l53.5,51.1l-129,123.2L275.6,235.8z M404.6,116.1L279.2,235.8l49.8,47.6l125.4-119.7
		L404.6,116.1z"/>
</g>
<g>
	<polygon class="st0" points="313.1,302.6 454.4,167.7 400.8,116.6 259.1,251.6 261,253.4 400.8,120.2 450.6,167.7 311.2,300.8 	"/>
</g>
<g>
	<path class="st0" d="M305.7,207.3L373,143l53.3,50.9L359,258.2L305.7,207.3z M373,146.1l-64.1,61.2l50.1,47.8l64.1-61.2L373,146.1z
		"/>
</g>
<g>
	<path class="st0" d="M359.8,156.3l5-4.8l53,50.6l-5,4.8L359.8,156.3z M364.8,154.8l-1.5,1.4l49.5,47.3l1.5-1.4L364.8,154.8z"/>
</g>
<g>
	<path class="st0" d="M352.6,163.1l5-4.8l52.6,50.2l-5,4.8L352.6,163.1z M357.6,161.7l-1.5,1.4l49.1,46.9l1.5-1.4L357.6,161.7z"/>
</g>
<g>
	<path class="st0" d="M345.3,170l5-4.8l53,50.6l-5,4.8L345.3,170z M350.4,168.6l-1.5,1.4l49.5,47.3l1.5-1.4L350.4,168.6z"/>
</g>
<g>
	<path class="st0" d="M306.1,207.1l5-4.8l52.8,50.4l-5,4.8L306.1,207.1z M311.1,205.6l-1.5,1.4l49.3,47l1.5-1.4L311.1,205.6z"/>
</g>
<g>
	<path class="st0" d="M375.5,66.5L418,25.9L540.7,143l-42.6,40.6L375.5,66.5z M418,29.4l-38.9,37.1l119,113.6L537,143L418,29.4z"/>
</g>
<g>
	<path class="st0" d="M454.5,63.6l8.2-7.8l85.2,81.3l-8.2,7.8L454.5,63.6z M462.7,59.2l-4.7,4.5l81.7,78l4.7-4.5L462.7,59.2z"/>
</g>
<g>
	<path class="st0" d="M467.7,63.9l22.9-21.8c2-1.9,4.8-3,7.6-3c2.9,0,5.6,1.1,7.6,3l56.7,54.1c2,1.9,3.2,4.5,3.2,7.3
		c0,2.8-1.1,5.3-3.2,7.3l-22.9,21.8L467.7,63.9z M492.3,43.7l-21.1,20.1l68.5,65.4l21.1-20.1c1.6-1.5,2.4-3.5,2.4-5.6
		c0-2.1-0.9-4.1-2.4-5.6l-56.7-54.1c-1.6-1.5-3.7-2.3-5.9-2.3C496,41.4,493.9,42.2,492.3,43.7z"/>
</g>
<g>
	<path class="st0" d="M519.4,58.4L531.3,47l28.1,26.9l-11.9,11.3L519.4,58.4z M531.3,50.4l-8.3,8l24.6,23.5l8.3-8L531.3,50.4z"/>
</g>
<g>
	<path class="st0" d="M535,46.6l8.6-8.2l24.6,23.5l-8.6,8.2L535,46.6z M543.7,41.7l-5.1,4.8l21,20.1l5.1-4.8L543.7,41.7z"/>
</g>
<g>
	<path class="st0" d="M533.7,52.8l5.7-5.4l20,19l-5.7,5.4L533.7,52.8z M539.4,50.7l-2.1,2l16.4,15.7l2.1-2L539.4,50.7z"/>
</g>
<g>
	<polygon class="st1" points="387.9,115.3 355.6,84.6 363.7,76.9 395.9,107.7 	"/>
	<polygon class="st2" points="376.7,126 346.9,97.4 354.7,90 384.6,118.5 	"/>
	<polygon class="st3" points="365.6,136.6 338.1,110.3 345.7,103 373.2,129.3 	"/>
	<polygon class="st4" points="354.5,147.2 329.3,123.2 336.7,116.1 361.9,140.1 	"/>
	<polygon class="st5" points="343.4,157.9 320.5,136.1 327.8,129.2 350.6,150.9 	"/>
	<polygon class="st6" points="332.2,168.5 311.8,149 318.8,142.2 339.3,161.8 	"/>
	<polygon class="st7" points="321.1,179.1 303,161.8 309.8,155.3 327.9,172.6 	"/>
</g>
<g>
	<polygon class="st7" points="469.9,200.2 451.8,182.9 458.7,176.4 476.8,193.7 	"/>
	<polygon class="st7" points="458.7,210.8 440.6,193.5 447.4,187 465.5,204.3 	"/>
	<polygon class="st7" points="447.4,221.4 429.3,204.1 436.1,197.6 454.2,214.8 	"/>
	<polygon class="st7" points="436.1,232 418,214.7 424.9,208.2 442.9,225.4 	"/>
	<polygon class="st7" points="424.8,242.5 406.7,225.3 413.6,218.7 431.7,236 	"/>
	<polygon class="st7" points="413.6,253.1 395.5,235.9 402.3,229.3 420.4,246.6 	"/>
	<polygon class="st7" points="402.3,263.7 384.2,246.4 391,239.9 409.1,257.2 	"/>
	<polygon class="st7" points="391,274.3 372.9,257 379.7,250.5 397.8,267.8 	"/>
	<polygon class="st7" points="379.7,284.9 361.6,267.6 368.5,261.1 386.6,278.4 	"/>
</g>
<g>
	<path class="st0" d="M380,78.9l6-5.7l113.9,108.7l-6,5.7L380,78.9z M386,76.5l-2.5,2.4l110.4,105.4l2.5-2.4L386,76.5z"/>
</g>
<g>
	<polygon class="st0" points="493.4,187 494.4,184.8 462.1,170.8 461.1,173 	"/>
</g>
<g>
	<polygon class="st0" points="395.4,110.2 397.6,109.2 383,78.4 380.7,79.4 	"/>
</g>
<g>
	<path class="st0" d="M344.2,224.1c-3.3-3.2-5.2-7.4-5.2-11.9c0-4.5,1.8-8.7,5.2-11.9c3.3-3.2,7.7-4.9,12.4-4.9l0,0
		c4.7,0,9.1,1.7,12.4,4.9c6.9,6.6,6.9,17.2,0,23.8l0,0c-3.4,3.3-7.9,4.9-12.4,4.9C352.1,229,347.6,227.3,344.2,224.1z M367.3,222.4
		c5.9-5.6,5.9-14.8,0-20.4c-5.9-5.6-15.5-5.6-21.4,0c-2.9,2.7-4.4,6.3-4.4,10.2c0,3.9,1.6,7.5,4.4,10.2
		C351.8,228,361.4,228,367.3,222.4L367.3,222.4z"/>
</g>
<g>
	<path class="st0" d="M348.3,219.8c-2.2-2.1-3.4-4.9-3.4-7.8c0-2.9,1.2-5.7,3.4-7.8c2.2-2.1,5.1-3.2,8.2-3.2c3.1,0,6,1.1,8.2,3.2
		c2.2,2.1,3.4,4.9,3.4,7.8c0,2.9-1.2,5.7-3.4,7.8c-2.2,2.1-5.1,3.2-8.2,3.2C353.4,223.1,350.5,221.9,348.3,219.8z M350.1,205.9
		c-1.7,1.6-2.7,3.8-2.7,6.1c0,2.3,0.9,4.5,2.7,6.1c1.7,1.6,4,2.5,6.4,2.5c2.4,0,4.7-0.9,6.4-2.5c1.7-1.6,2.7-3.8,2.7-6.1
		c0-2.3-0.9-4.5-2.7-6.1c-1.7-1.6-4-2.5-6.4-2.5C354.1,203.4,351.8,204.3,350.1,205.9z"/>
</g>
<g>
	<path class="st0" d="M352.2,216.4c-2.5-2.3-2.5-6.1,0-8.5c2.5-2.3,6.4-2.3,8.9,0c2.5,2.3,2.5,6.1,0,8.5c-1.2,1.2-2.8,1.8-4.4,1.8
		S353.4,217.6,352.2,216.4z M353.9,209.6c-1.5,1.4-1.5,3.7,0,5.1c1.5,1.4,3.9,1.4,5.4,0c1.5-1.4,1.5-3.7,0-5.1
		c-0.7-0.7-1.7-1.1-2.7-1.1C355.7,208.5,354.7,208.9,353.9,209.6z"/>
</g>
<g>
	<path class="st0" d="M412.6,123.7l13.2-12.6l5,4.8l-13.2,12.6L412.6,123.7z M425.8,114.5l-9.6,9.2l1.5,1.4l9.6-9.2L425.8,114.5z"/>
</g>
<g>
	<path class="st0" d="M431.4,141.6l13.2-12.6l9.4,9l-13.2,12.6L431.4,141.6z M444.6,132.4l-9.6,9.2l5.9,5.6l9.6-9.2L444.6,132.4z"/>
</g>
<g>
	<path class="st0" d="M305.5,165.9L387,88.1l15.6,14.9l-81.5,77.8L305.5,165.9z M387,91.5l-78,74.4l12,11.5l78-74.4L387,91.5z"/>
</g>
<g>
	<path class="st0" d="M355.7,271l111.6-106.5l15.9,15.1L371.6,286.1L355.7,271z M467.3,168.4L359.9,271l11.7,11.2L479,179.6
		L467.3,168.4z"/>
</g>
<g>
	<g>
		<path class="st0" d="M373.5,60.8l23.7-22.6l6.7,6.4l-23.7,22.6L373.5,60.8z M397.2,41.5L377,60.8l3.1,3l20.1-19.2L397.2,41.5z"/>
	</g>
	<g>
		<path class="st0" d="M380.3,63.7l20.2-19.3l5.4,5.1l-20.2,19.3L380.3,63.7z M400.5,47.7l-16.7,16l1.9,1.8l16.7-16L400.5,47.7z"/>
	</g>
	<g>
		<path class="st0" d="M370.4,50.2L386.3,35l8.9,8.5l-15.9,15.2L370.4,50.2z M386.3,38.3l-12.4,11.9l5.3,5.1l12.4-11.9L386.3,38.3z"
			/>
	</g>
	<g>
		<path class="st0" d="M370.2,46.5L382.2,35l3.8,3.6L374,50.1L370.2,46.5z M382.2,38.4l-8.5,8.1l0.3,0.3l8.5-8.1L382.2,38.4z"/>
	</g>
	<g>
		<path class="st0" d="M359.4,38.7l14.9-14.2l10.9,10.4L370.3,49L359.4,38.7z M374.3,27.8l-11.3,10.8l7.4,7l11.3-10.8L374.3,27.8z"
			/>
	</g>
	<g>
		<path class="st0" d="M349.4,35.2l21.9-20.9l8.5,8.2L358,43.4L349.4,35.2z M371.3,17.7l-18.3,17.5l5,4.8l18.3-17.5L371.3,17.7z"/>
	</g>
	<g>
		<path class="st0" d="M346.4,26.2l14.9-14.2l8,7.6l-14.9,14.2L346.4,26.2z M361.2,15.4l-11.3,10.8l4.5,4.3l11.3-10.8L361.2,15.4z"
			/>
	</g>
	<g>
		<path class="st0" d="M343.5,21l12.1-11.5l6,5.7l-12.1,11.5L343.5,21z M355.5,12.9L347,21l2.4,2.3l8.5-8.1L355.5,12.9z"/>
	</g>
	<g>
		<path class="st0" d="M342.2,17.3l8.6-8.2l3.8,3.6l-8.6,8.2L342.2,17.3z M350.8,12.4l-5.1,4.9l0.3,0.3l5.1-4.9L350.8,12.4z"/>
	</g>
	<g>
		<path class="st0" d="M332.6,10.6L343.8,0l9.7,9.3l-11.2,10.6L332.6,10.6z M343.8,3.4l-7.6,7.3l6.2,5.9l7.6-7.3L343.8,3.4z"/>
	</g>
	<g>
		<path class="st0" d="M332.6,10.6l8-7.7l8.2,7.8l-8,7.7L332.6,10.6z M340.7,6.3l-4.5,4.3l4.6,4.4l4.5-4.3L340.7,6.3z"/>
	</g>
	<g>
		<polygon class="st0" points="348.2,23.8 358.5,14 356.7,12.3 346.4,22.2 		"/>
	</g>
	<g>
		<polygon class="st0" points="354,37.9 374.1,18.7 372.3,17 352.2,36.2 		"/>
	</g>
	<g>
		<path class="st0" d="M355.6,29.4l9.9-9.4l8.5,8.2l-9.9,9.4L355.6,29.4z M365.4,23.3l-6.3,6.1l5,4.8l6.3-6.1L365.4,23.3z"/>
	</g>
</g>
<g>
	<polygon class="st0" points="307.5,259.2 557.8,21.9 557.5,21.7 558,21.2 557.4,20.7 306.6,258.4 	"/>
</g>
<g>
	<path class="st0" d="M371.9,144.5l2.5-2.4l52.9,50.5l-2.5,2.4L371.9,144.5z M374.4,144.5L374.4,144.5l50.4,48.2l0,0L374.4,144.5z"
		/>
</g>
<g>
	<path class="st0" d="M401.7,41.4l5.2-5l124.3,118.7l-5.2,5L401.7,41.4z M407,39.9l-1.6,1.5l120.7,115.2l1.6-1.5L407,39.9z"/>
</g>
<g>
	<g>
		<rect x="25.9" y="372.9" class="st0" width="106.6" height="0.9"/>
	</g>
	<g>
		<path class="st0" d="M80.6,423v-99.5V423z"/>
		<rect x="80.2" y="323.5" class="st0" width="0.8" height="99.5"/>
	</g>
</g>
<g>
	<g>
		<rect x="6.4" y="300.3" class="st0" width="106.6" height="0.9"/>
	</g>
	<g>
		<path class="st0" d="M61.2,350.5V251V350.5z"/>
		<rect x="60.8" y="251" class="st0" width="0.8" height="99.5"/>
	</g>
</g>
<g>
	<path class="st0" d="M363.4,385.7l-40-7.6c-1.7-0.3-3.2-1.3-4.1-2.7c-0.9-1.4-1.1-3.1-0.6-4.7L323,357c0.8-2.5,3.2-4.2,5.9-4.2
		h43.7c0.2-2.6,0.3-5.3,0.3-8c0-12.1-1.8-24-5.4-35.4c0-0.1-0.1-0.1-0.2-0.1c-0.2,0.2-0.3,0.4-0.5,0.6c-4.2,4.9-11.9,5.9-17.2,2.1
		c-2.8-2-4.5-4.9-4.9-8.1c-0.4-3.3,0.6-6.5,2.8-9c2.7-3.1,6.9-4.7,11.2-4.2c0.4,0,0.6-0.2,0.6-0.3c0.1-0.1,0.2-0.3,0-0.6
		c-2.4-4.5-5.1-8.9-8-13.1l1.9-1.2c3,4.3,5.7,8.8,8.1,13.4c0.5,0.9,0.4,2-0.2,2.8c-0.6,0.9-1.7,1.3-2.8,1.2
		c-3.5-0.4-6.9,0.9-9.1,3.4c-1.8,2.1-2.6,4.7-2.3,7.3c0.3,2.7,1.7,5,4,6.6c4.3,3.1,10.6,2.3,14-1.7c0.1-0.2,0.3-0.3,0.4-0.5
		c0.5-0.7,1.4-1.1,2.3-0.9c0.9,0.1,1.7,0.8,2,1.6c3.7,11.7,5.5,23.8,5.5,36.1c0,12.8-2,25.4-6,37.5c-0.7,2.1-2.6,3.4-4.8,3.4
		C364.1,385.8,363.8,385.7,363.4,385.7z M328.9,355.1c-1.7,0-3.2,1-3.7,2.6l-4.3,13.5c-0.3,1-0.2,2.1,0.4,3c0.6,0.9,1.5,1.5,2.5,1.7
		l40,7.6c1.4,0.3,2.7-0.5,3.2-1.8c2.8-8.6,4.7-17.6,5.4-26.6H328.9z"/>
</g>
<g>
	<path class="st0" d="M228.2,171.8l50-47.7l4.7,4.5l-50,47.7L228.2,171.8z M278.2,127.3l-46.7,44.5l1.4,1.3l46.7-44.5L278.2,127.3z"
		/>
</g>
<g>
	<path class="st0" d="M61.8,407.5c0.3,0,0.5-0.1,0.8-0.3l28-26.7c0.4-0.4,0.4-1,0-1.4c-0.4-0.4-1.1-0.4-1.5,0l-28,26.7
		c-0.4,0.4-0.4,1,0,1.4C61.3,407.4,61.5,407.5,61.8,407.5z"/>
</g>
<g>
	<path class="st0" d="M45.6,392c0.3,0,0.5-0.1,0.8-0.3l28.2-26.9c0.4-0.4,0.4-1,0-1.4c-0.4-0.4-1.1-0.4-1.5,0l-28.2,26.9
		c-0.4,0.4-0.4,1,0,1.4C45.1,391.9,45.4,392,45.6,392z"/>
</g>
<g>
	<path class="st0" d="M53.5,399c-1.4-1.3-2.2-3.1-2.2-5.1c0-1.9,0.8-3.7,2.2-5.1l6-5.8c2.9-2.8,7.7-2.8,10.6,0
		c2.9,2.8,2.9,7.3,0,10.1l-6,5.8c-1.4,1.3-3.3,2.1-5.3,2.1C56.8,401.1,54.9,400.3,53.5,399z M61,384.5l-6,5.8c-1,1-1.6,2.2-1.6,3.6
		c0,1.4,0.6,2.7,1.6,3.6c1,1,2.4,1.5,3.8,1.5c1.4,0,2.8-0.5,3.8-1.5l6-5.8c2.1-2,2.1-5.2,0-7.2c-1-1-2.4-1.5-3.8-1.5
		C63.4,383,62.1,383.6,61,384.5z"/>
</g>
<g>
	<path class="st0" d="M55.8,309.2l0.8-1.4c1.6,0.8,3.4,1.3,5.2,1.3h0c0.8,0,1.6-0.1,2.4-0.2l0.4,1.6c-0.9,0.2-1.8,0.3-2.7,0.3
		c0,0,0,0,0,0C59.7,310.6,57.6,310.1,55.8,309.2z M67.8,307.3c2.2-1.4,3.8-3.5,4.6-5.9l1.6,0.4c-0.8,2.8-2.7,5.2-5.3,6.8L67.8,307.3
		z M49.2,298.6h1.7c0,2.5,1,4.9,2.7,6.8l-1.3,1.1C50.3,304.3,49.2,301.5,49.2,298.6z M69.5,291.2l1.2-1.1c2.2,2,3.5,4.8,3.7,7.6
		l-1.7,0.1C72.5,295.3,71.4,292.9,69.5,291.2z M49.5,296.1c0.6-2.8,2.3-5.4,4.7-7.1l1,1.3c-2.1,1.5-3.5,3.7-4.1,6.2L49.5,296.1z
		 M58.7,288.6l-0.5-1.5c2.9-0.8,6.1-0.6,8.8,0.5l-0.7,1.5C63.9,288.1,61.2,287.9,58.7,288.6z"/>
</g>
<g>
	<path class="st0" d="M217.4,270.7c35-3.8,87.3-40,102.5-51l-1.8-2.2c-15.1,10.9-66.9,46.7-101.1,50.5L217.4,270.7z"/>
</g>
<g>
	<path class="st0" d="M249.7,329.5c12.6-37.6,77.8-78,85.2-82.5l9-5.2l-1.5-2.4l-9,5.3c-12.2,7.4-73.8,46.3-86.5,84L249.7,329.5z"/>
</g>
<g>
	<path class="st0" d="M251.5,296.3c1,0,2-0.3,2.8-0.9l84.6-58.3l-1.6-2.2l-84.6,58.3c-0.9,0.6-2.2,0.4-2.9-0.5l-7.8-10.5
		c-0.7-0.9-0.5-2.1,0.5-2.8l81.4-56.1l-1.6-2.2l-81.4,56.1c-2.2,1.5-2.7,4.4-1.1,6.5l7.8,10.5C248.5,295.6,250,296.3,251.5,296.3z"
		/>
</g>
<g>
	<path class="st0" d="M77.4,373c0-1.7,1.4-3,3.2-3s3.2,1.4,3.2,3c0,1.7-1.4,3-3.2,3S77.4,374.7,77.4,373z M78.6,373
		c0,1.1,0.9,2,2.1,2c1.1,0,2.1-0.9,2.1-2s-0.9-2-2.1-2C79.5,371.1,78.6,372,78.6,373z"/>
</g>
<g>
	<g>
		<g>
			<path class="st0" d="M293,435.6l-2.8-6.2l3.4-6l7-1.2l5.4,4.5l-0.3,6.8l-5.7,4L293,435.6z M304.5,427.2l-4.4-3.6l-5.7,1l-2.7,4.9
				l2.3,5.1l5.6,1.5l4.7-3.3L304.5,427.2z"/>
		</g>
		<g>
			<path class="st0" d="M294.4,429.7c0-2.2,1.8-3.9,4.1-3.9s4.1,1.8,4.1,3.9c0,2.2-1.8,3.9-4.1,3.9S294.4,431.9,294.4,429.7z
				 M295.8,429.7c0,1.4,1.2,2.6,2.7,2.6c1.5,0,2.7-1.2,2.7-2.6c0-1.4-1.2-2.6-2.7-2.6C297,427.1,295.8,428.3,295.8,429.7z"/>
		</g>
	</g>
	<g>
		<path class="st0" d="M296.1,429.7c0-1.2,1.1-2.3,2.4-2.3c1.3,0,2.4,1,2.4,2.3c0,1.2-1.1,2.3-2.4,2.3
			C297.2,432,296.1,431,296.1,429.7z M297,429.7c0,0.8,0.7,1.5,1.5,1.5c0.8,0,1.5-0.7,1.5-1.5c0-0.8-0.7-1.5-1.5-1.5
			C297.7,428.3,297,428.9,297,429.7z"/>
	</g>
</g>
<g>
	<path class="st0" d="M250.7,178.9l35.4-33.8l39.8,38l-35.4,33.8L250.7,178.9z M286.1,148l-32.4,30.9l36.9,35.2l32.4-30.9L286.1,148
		z"/>
</g>
<g>
	<path class="st0" d="M263.6,182.3l26.5-25.3l28.3,27l-26.5,25.3L263.6,182.3z M290.1,160.1l-23.2,22.2l25,23.9l23.2-22.2
		L290.1,160.1z"/>
</g>
<g>
	<path class="st0" d="M244,479.8c77.9,0,141.3-60.5,141.3-134.9c0-27.4-8.5-53.8-24.7-76.2l-1.9,1.3c15.9,22.1,24.3,48.1,24.3,75
		c0,73.2-62.4,132.7-139,132.7c-23,0-70.8-8.4-118.9-20.9c-53.8-14-93.1-29-108-41.3C16.9,402.5,17,391.1,17,379
		c0.1-12.5,0.1-25.5-0.1-41.5c0-14.6-0.1-26.1-0.2-38.3c-0.1-11.8-0.2-24.1-0.2-39.4c54.8-18.5,180.3-47.5,227.5-47.5
		c12.8,0,25.4,1.7,37.6,4.9l0.6-2.1c-12.4-3.3-25.2-5-38.2-5c-47.6,0-174.6,29.4-229.1,47.9l-0.9,0.3v0.8c0,15.7,0.2,28.2,0.3,40.2
		c0.1,12.2,0.2,23.8,0.2,38.4c0.3,16,0.2,29,0.2,41.5c-0.1,12.2-0.1,23.7,0.2,36.9l0,0.5l0.4,0.3c14.8,12.6,54.7,28,109.3,42.1
		C172.8,471.4,220.8,479.8,244,479.8z"/>
</g>
<g>
	<path class="st0" d="M236.8,470c-15.4-0.9-38.4-4.4-64.8-9.9c-3.6-0.7-6.5-3-8-6.2c-1.5-3.2-1.3-6.8,0.5-9.8l11.6-19.6
		c1.8-3,5.7-4.3,9-2.9c1.7,0.7,3.4,1.3,5.1,1.9l0,0c10.8,3.8,22.2,5.7,33.9,5.7c6.6,0,13.3-0.6,19.7-1.9c3.6-0.7,7.3,1.4,8.3,4.8
		l5.1,17.6c0.3,1-0.1,2.1-0.9,2.8c-0.9,0.7-2.1,0.8-3.1,0.3c-1-0.5-2-0.8-3.1-1c-4.6-0.8-9.2,1.6-11,5.7c-1.3,2.8-1.1,6,0.5,8.6
		c0.5,0.8,0.5,1.9-0.1,2.7c-0.5,0.8-1.4,1.2-2.3,1.2C237,470,236.9,470,236.8,470z M250.4,449.6c1.3,0.2,2.6,0.7,3.8,1.3
		c0.3,0.1,0.5,0,0.5,0c0.1-0.1,0.2-0.2,0.1-0.4l-5.1-17.6c-0.7-2.3-3.1-3.7-5.6-3.2c-6.6,1.3-13.4,1.9-20.2,1.9
		c-11.9,0-23.6-2-34.7-5.9l0,0c-1.7-0.6-3.5-1.3-5.2-2c-2.2-0.9-4.8-0.1-6,1.9l-11.6,19.6c-1.4,2.4-1.6,5.3-0.4,7.8
		c1.2,2.5,3.5,4.3,6.4,4.9c26.3,5.4,49.2,8.9,64.5,9.9c0.2,0,0.3-0.1,0.4-0.2c0.1-0.1,0.1-0.2,0-0.4c-1.9-3.3-2.1-7.1-0.6-10.6
		c2-4.4,6.6-7.2,11.4-7.2C248.9,449.4,249.6,449.5,250.4,449.6z"/>
</g>
<g>
	<path class="st0" d="M9.6,356.3h7v51.4h-7V356.3z M14.1,358.7h-2v46.6h2V358.7z"/>
</g>
<g>
	<path class="st0" d="M0,362.9h11.9v38.3H0L0,362.9z M9.4,365.3H2.5v33.5h6.9V365.3z"/>
</g>
<g>
	<path class="st0" d="M14.2,274.4h12.5v133.2H14.2V274.4z M24.2,276.7h-7.6v128.5h7.6V276.7z"/>
</g>
<g>
	<path class="st0" d="M26,357.5l13.7-6.4L26,357.5z"/>
	<polygon class="st0" points="26.5,358.5 40.2,352 39.1,350 25.5,356.5 	"/>
</g>
<g>
	<path class="st0" d="M25.9,406.5l46.7,10.8L25.9,406.5z"/>
	<polygon class="st0" points="72.3,418.3 72.9,416.2 26.2,405.4 25.6,407.5 	"/>
</g>
<g>
	<path class="st0" d="M0.1,363h7v38.1h-7V363z M4.8,365.2H2.4v33.7h2.4V365.2z"/>
</g>
<g>
	<g>
		<path class="st0" d="M98,297.3c0-3.1,2.6-5.6,5.8-5.6c3.2,0,5.8,2.5,5.8,5.6c0,3.1-2.6,5.6-5.8,5.6C100.6,302.9,98,300.4,98,297.3
			z M100.3,297.3c0,1.9,1.6,3.4,3.5,3.4c2,0,3.5-1.5,3.5-3.4c0-1.9-1.6-3.4-3.5-3.4C101.9,294,100.3,295.5,100.3,297.3z"/>
		<path class="st0" d="M97.6,297.3c0-3.3,2.8-5.9,6.2-5.9c3.4,0,6.2,2.7,6.2,5.9c0,3.3-2.8,5.9-6.2,5.9
			C100.4,303.3,97.6,300.6,97.6,297.3z M98.4,297.3c0,2.9,2.4,5.2,5.4,5.2c3,0,5.4-2.3,5.4-5.2c0-2.9-2.4-5.2-5.4-5.2
			C100.8,292.1,98.4,294.5,98.4,297.3z M99.9,297.3c0-2.1,1.8-3.7,3.9-3.7c2.2,0,3.9,1.7,3.9,3.7c0,2.1-1.8,3.7-3.9,3.7
			C101.7,301.1,99.9,299.4,99.9,297.3z M100.7,297.3c0,1.7,1.4,3,3.2,3c1.7,0,3.2-1.4,3.2-3c0-1.7-1.4-3-3.2-3
			C102.1,294.3,100.7,295.7,100.7,297.3z"/>
	</g>
</g>
<g>
	<g>
		<path class="st0" d="M107.3,316.5c0-3.1,2.6-5.6,5.8-5.6c3.2,0,5.8,2.5,5.8,5.6c0,3.1-2.6,5.6-5.8,5.6
			C109.9,322.1,107.3,319.6,107.3,316.5z M109.5,316.5c0,1.9,1.6,3.4,3.5,3.4c2,0,3.5-1.5,3.5-3.4c0-1.9-1.6-3.4-3.5-3.4
			C111.1,313.1,109.5,314.7,109.5,316.5z"/>
		<path class="st0" d="M106.9,316.5c0-3.3,2.8-5.9,6.2-5.9c3.4,0,6.2,2.7,6.2,5.9s-2.8,5.9-6.2,5.9
			C109.7,322.5,106.9,319.8,106.9,316.5z M107.6,316.5c0,2.9,2.4,5.2,5.4,5.2c3,0,5.4-2.3,5.4-5.2c0-2.9-2.4-5.2-5.4-5.2
			C110.1,311.3,107.6,313.7,107.6,316.5z M109.2,316.5c0-2.1,1.8-3.7,3.9-3.7s3.9,1.7,3.9,3.7c0,2.1-1.8,3.7-3.9,3.7
			S109.2,318.6,109.2,316.5z M109.9,316.5c0,1.7,1.4,3,3.2,3c1.7,0,3.2-1.4,3.2-3c0-1.7-1.4-3-3.2-3
			C111.4,313.5,109.9,314.9,109.9,316.5z"/>
	</g>
</g>
<g>
	<g>
		<path class="st0" d="M74.8,426.5c0-3.1,2.6-5.6,5.8-5.6c3.2,0,5.8,2.5,5.8,5.6c0,3.1-2.6,5.6-5.8,5.6
			C77.4,432,74.8,429.5,74.8,426.5z M77.1,426.5c0,1.9,1.6,3.4,3.5,3.4c2,0,3.5-1.5,3.5-3.4c0-1.9-1.6-3.4-3.5-3.4
			C78.7,423.1,77.1,424.6,77.1,426.5z"/>
		<path class="st0" d="M74.4,426.5c0-3.3,2.8-5.9,6.2-5.9c3.4,0,6.2,2.7,6.2,5.9s-2.8,5.9-6.2,5.9C77.2,432.4,74.4,429.7,74.4,426.5
			z M75.2,426.5c0,2.9,2.4,5.2,5.4,5.2c3,0,5.4-2.3,5.4-5.2c0-2.9-2.4-5.2-5.4-5.2C77.6,421.3,75.2,423.6,75.2,426.5z M76.7,426.5
			c0-2.1,1.8-3.7,3.9-3.7c2.2,0,3.9,1.7,3.9,3.7c0,2.1-1.8,3.7-3.9,3.7C78.5,430.2,76.7,428.5,76.7,426.5z M77.5,426.5
			c0,1.7,1.4,3,3.2,3c1.7,0,3.2-1.4,3.2-3c0-1.7-1.4-3-3.2-3C78.9,423.4,77.5,424.8,77.5,426.5z"/>
	</g>
</g>
<g>
	<g>
		<g>
			<path class="st0" d="M35.1,382c0,0,0,0.1,0,0.1c0.2,1.1,0.2,2.3,0.6,3.5c0,0,0,0.2,0,0.2c0,0.1,0.1,0.6,0.1,0.7
				c0.3-0.1,4.9-1.9,7.7,1.5c0.2,0.6,0.3,1.2,0.4,1.8c0,0.6-0.1,1.2-0.4,1.8c-0.3,0.8-0.9,1.6-1.6,2.2c0,0,0,0,0,0
				c-0.3,0.3-0.7,0.5-1,0.7c-0.4,0.2-0.8,0.3-1.2,0.4c0.6,1,1.2,2,1.8,3c0.4-0.2,0.8-0.4,1.1-0.6c0.3-0.2,0.7-0.5,1-0.7l0,0
				c1.5-1.2,2.5-2.7,3-4.3c0.3-0.9,0.5-1.9,0.6-2.9c0-0.5,0-0.9-0.1-1.4c0-0.2-0.1-0.4-0.2-0.7c-0.1-0.2-0.1-0.5-0.2-0.7
				c-0.3-0.9-0.9-1.7-1.6-2.3c-0.7-0.7-1.5-1.3-2.4-1.7c-0.9-0.5-2-0.8-3.1-1c-0.7-0.1-1.3-0.2-2-0.1c-0.1,0-0.1,0-0.2,0
				c-0.4,0-0.8,0.1-1.2,0.1C35.8,381.8,35.5,381.9,35.1,382z"/>
		</g>
	</g>
	<g>
		<g>
			<path class="st0" d="M50.7,406.3c0.3-0.3,0.6-0.6,0.9-0.8c0.8-0.6,1.7-0.8,2.6-0.9c1.3-0.1,2.6,0.1,3.7,0.8
				c0.3,0.2,0.5,0.4,0.7,0.6c0.2,0.2,0.4,0.4,0.6,0.7c0.3,0.5,0.6,1.1,0.7,1.7c0.2,0.9,0.2,1.8-0.1,2.7c-0.1,0.4-0.3,0.8-0.5,1.1
				c-0.2,0.4-0.5,0.7-0.8,1c1.1,0.6,2.1,1.1,3.2,1.6c0.2-0.3,0.5-0.7,0.6-1.1c0.2-0.4,0.3-0.7,0.4-1.1c0.6-1.8,0.5-3.6,0.1-5.1
				c-0.3-0.9-0.6-1.9-1.1-2.7c-0.5-0.8-1.2-1.3-2-1.9c-0.8-0.6-1.7-0.7-2.7-0.9c-0.9-0.2-1.9,0.1-3,0.2c-1.7,0.2-3.5,1.4-5,2.5
				C49.2,404.7,50.4,406.6,50.7,406.3z"/>
		</g>
	</g>
	<g>
		<g>
			<path class="st0" d="M74.2,418.4c0-0.4,0-0.8,0-1.3c0.1-0.4,0.2-0.8,0.3-1.1c0.4-0.9,1-1.6,1.7-2.2c1-0.7,2.2-1.3,3.5-1.2
				c0.7,0,1.3,0.2,1.9,0.5c0.6,0.2,1.1,0.6,1.6,1c0.7,0.6,1.2,1.4,1.5,2.4c0.1,0.4,0.2,0.7,0.2,1.1c0,0.4,0,0.9-0.1,1.3
				c1.2-0.1,2.4-0.2,3.6-0.4c0-0.4,0-0.8-0.1-1.2c-0.1-0.4-0.2-0.8-0.3-1.1c-0.2-0.7-0.5-1.4-0.9-2c-0.5-0.9-1.2-1.7-2-2.4
				c-1.5-1.5-3.3-2.2-5.3-2.4c-2,0-3.8,0.6-5.5,1.9c-0.8,0.7-1.6,1.4-2.2,2.3c-0.4,0.6-0.8,1.2-1.1,1.9c-0.2,0.4-0.3,0.7-0.4,1.1
				c-0.1,0.4-0.2,0.8-0.2,1.2C71.8,418,73,418.2,74.2,418.4z"/>
		</g>
	</g>
	<g>
		<g>
			<path class="st0" d="M96.7,414.2c0.1,0.4,0.2,0.8,0.3,1.1c0.1,0.4,0.3,0.8,0.5,1.1c1.1-0.4,2.3-0.8,3.4-1.3
				c-0.3-0.3-0.5-0.7-0.6-1c-0.2-0.4-0.3-0.8-0.4-1.1c-0.2-0.9-0.1-1.9,0.2-2.7c0.4-1.2,1.2-2.1,2.3-2.8c1.1-0.7,2.5-0.7,3.7-0.5
				c0.9,0.2,1.8,0.6,2.5,1.2c0.3,0.2,0.6,0.5,0.9,0.8c0.3,0.3,0.5,0.7,0.6,1.1c1-0.7,1.9-1.4,2.8-2.2c-0.2-0.3-0.5-0.7-0.8-1
				s-0.6-0.6-0.9-0.8c-1.4-1.2-3.2-1.9-4.9-2.3c-1-0.2-2.1-0.2-3-0.1c-1,0.1-1.9,0.4-2.8,0.9c-0.8,0.5-1.6,1.1-2.2,1.8
				c-0.6,0.7-1,1.7-1.4,2.6C96.6,410.5,96.3,412.3,96.7,414.2z"/>
		</g>
	</g>
	<g>
		<g>
			<path class="st0" d="M114.9,395.4c0.4,1.6,1.2,3.2,2.6,4.5c0.3,0.3,0.6,0.6,0.9,0.8c0.3,0.3,0.7,0.5,1.1,0.7
				c0.7-0.9,1.4-1.9,2.1-2.8c-0.4-0.1-0.8-0.3-1.1-0.5c-0.4-0.2-0.7-0.5-1-0.8c-0.7-0.7-1.1-1.5-1.4-2.4c-0.2-0.6-0.2-1.2-0.2-1.8
				c0.1-0.6,0.3-1.2,0.5-1.8c0.6-1.1,1.6-1.9,2.9-2.3c0.8-0.3,1.8-0.5,2.8-0.3c0.4,0,0.8,0.1,1.2,0.3c0.4,0.2,0.8,0.3,1.2,0.6
				c0.4-1.1,0.8-2.2,1.2-3.3c-0.4-0.2-0.8-0.3-1.2-0.4c-0.4-0.1-0.8-0.2-1.2-0.3c-0.8-0.1-1.5-0.1-2.2-0.1c-1.1,0.1-2.2,0.3-3.2,0.7
				c-1,0.4-1.9,0.9-2.6,1.5c-0.8,0.6-1.4,1.3-1.9,2.2c-0.4,0.9-0.8,1.7-0.8,2.7C114.5,393.5,114.7,394.5,114.9,395.4z"/>
		</g>
	</g>
	<g>
		<g>
			<path class="st0" d="M119.5,369.9c0.1,1.9,1.2,3.6,2.6,5c1.2,1.1,2.9,2.1,4.8,2.5c0.4,0.1,0.8,0.2,1.2,0.2c0.4,0,0.9,0.1,1.3,0
				c0.1-1.1,0.2-2.3,0.2-3.5c-0.4,0.1-0.9,0.2-1.3,0.1c-0.4,0-0.8-0.1-1.2-0.2c-0.9-0.2-1.8-0.7-2.5-1.3c-1-0.9-1.7-2-1.7-3.2
				c-0.1-1.2,0.2-2.4,1.1-3.4c0.6-0.7,1.3-1.3,2.2-1.7c0.4-0.2,0.8-0.3,1.2-0.4c0.4-0.1,0.9-0.1,1.3-0.1c-0.3-1.1-0.5-2.3-0.9-3.4
				c-0.4,0-0.8,0.1-1.2,0.2c-0.4,0.1-0.8,0.3-1.2,0.4c-1.8,0.8-3.2,2-4.2,3.3c-0.3,0.4-0.5,0.8-0.8,1.3c-0.3,0.4-0.5,0.9-0.6,1.3
				C119.4,368,119.4,368.9,119.5,369.9z"/>
		</g>
	</g>
	<g>
		<g>
			<path class="st0" d="M109.9,345.7c0,1,0,2,0.3,2.9c0.3,0.9,0.8,1.7,1.3,2.5c0.6,0.8,1.4,1.3,2.3,1.8c0.8,0.5,1.8,0.8,2.8,1
				c1.7,0.3,3.6,0.3,5.4-0.4c0.4-0.1,0.8-0.3,1.2-0.5c0.4-0.2,0.7-0.4,1.1-0.7c-0.6-1-1.2-2-1.8-3c-0.3,0.3-0.6,0.6-1,0.8
				c-0.4,0.2-0.7,0.4-1.1,0.5c-0.9,0.3-1.9,0.4-2.8,0.2c-1.3-0.2-2.5-0.8-3.3-1.8c-0.2-0.3-0.4-0.5-0.5-0.8
				c-0.2-0.3-0.3-0.5-0.4-0.8c-0.2-0.6-0.2-1.2-0.2-1.8c0.1-0.9,0.4-1.8,0.9-2.6c0.2-0.4,0.5-0.7,0.8-1c0.3-0.3,0.6-0.5,1-0.7
				c-0.8-0.8-1.7-1.6-2.6-2.4c-0.3,0.2-0.6,0.5-0.9,0.9c-0.3,0.3-0.5,0.6-0.7,1C110.5,342.3,110,344.1,109.9,345.7z"/>
		</g>
	</g>
	<g>
		<g>
			<path class="st0" d="M88.4,330.5c0,1.9,0.6,3.6,1.4,5c0.5,0.9,1.2,1.7,1.9,2.3c0.4,0.3,0.8,0.6,1.2,0.8c0.4,0.2,0.8,0.5,1.3,0.6
				c0.9,0.3,1.9,0.4,2.9,0.3c1,0,2-0.2,2.9-0.6c1.6-0.7,3.2-1.7,4.4-3.1c0.3-0.3,0.5-0.6,0.7-1c0.2-0.4,0.4-0.7,0.5-1.1
				c-1.1-0.6-2.1-1.1-3.2-1.6c-0.1,0.4-0.2,0.8-0.4,1.2c-0.2,0.4-0.4,0.7-0.7,1c-0.6,0.7-1.4,1.3-2.3,1.6c-1.2,0.4-2.6,0.7-3.8,0.2
				c-1.2-0.5-2.2-1.2-2.8-2.4c-0.4-0.8-0.7-1.7-0.7-2.6c0-0.4,0-0.8,0.1-1.2c0.1-0.4,0.2-0.8,0.4-1.2c-1.2-0.3-2.4-0.5-3.6-0.6
				c-0.1,0.4-0.2,0.8-0.3,1.2C88.4,329.8,88.4,330.2,88.4,330.5z"/>
		</g>
	</g>
	<g>
		<g>
			<path class="st0" d="M62,331.8C62,331.8,62.1,331.8,62,331.8c0.1,0.4,0.3,0.8,0.5,1.1c0.2,0.4,0.4,0.7,0.6,1c0,0,0,0,0,0
				c1,1.5,2.5,2.6,4,3.5c0.9,0.5,1.9,0.8,2.9,0.9c1,0.1,2,0.2,2.9-0.1c0.5-0.1,0.9-0.3,1.4-0.5c0.4-0.2,0.9-0.4,1.3-0.7
				c0.8-0.5,1.5-1.3,2.1-2.1c1-1.3,1.8-3,1.9-4.8c0-0.4,0-0.8,0-1.1c0-0.4-0.1-0.8-0.2-1.3c-1.2,0.1-2.4,0.2-3.6,0.3
				c0.2,0.4,0.3,0.8,0.3,1.2c0,0.4,0,0.8,0,1.2c-0.1,0.9-0.5,1.8-1,2.6c-0.7,1-1.8,1.7-3.1,2.1c-1.3,0.3-2.6,0-3.7-0.5
				c-0.8-0.4-1.3-1.1-1.8-1.9c0,0-0.7-0.6-0.8-1C65.6,331.3,63.1,331.3,62,331.8z"/>
		</g>
	</g>
	<g>
		<g>
			<path class="st0" d="M44,348.6C44,348.6,44,348.6,44,348.6c0,0-1.1,0-1.1,0.1c0.3,0.3-0.5,0.5-0.2,0.7c0.3,0.2,0.7,0.4,1.1,0.6
				c0,0,0,0,0,0c0,0,0,0,0,0c1.7,0.8,3.6,1,5.3,0.8c1.1-0.1,2-0.3,2.9-0.7c0.9-0.4,1.8-0.9,2.4-1.6c0.6-0.7,1.2-1.5,1.6-2.4
				c0.4-0.9,0.5-1.9,0.6-2.8c0.1-1.6-0.2-3.4-1.1-5.1c-0.2-0.3-0.4-0.7-0.6-1c-0.3-0.3-0.5-0.7-0.8-0.9l0,0c-1,0.7-1.9,1-2.8,2.1
				c0.3,0,0.6,0.5,0.9,0.8c0.3,0.3,0.5,0.7,0.7,1.1c0.5,0.8,0.7,1.8,0.6,2.6c0,0.6-0.1,1.2-0.4,1.8c-0.1,0.3-0.2,0.5-0.4,0.8
				c-0.2,0.3-0.3,0.5-0.5,0.8c-0.9,0.9-2,1.4-3.3,1.5c-0.8,0.1-1.4,0-2.2-0.4c-0.1,0-1.2-0.4-1.4-0.6
				C44.8,346.5,46.1,347.6,44,348.6z"/>
		</g>
	</g>
	<g>
		<g>
			<path class="st0" d="M37,369.9v3.4c1.4,0-0.7,0-0.5,0c0.4,0-0.4,0,0-0.1c0.1,0,0.2,0,0.4-0.1c1.8-0.3,3.4-1,4.7-2
				c0.9-0.6,1.5-1.3,2.1-2.1c0.6-0.8,1-1.6,1.2-2.6c0.3-1.7,0.1-5.4-3.1-8.5c0,0-2.3-1.4-2.7-1.4c-0.4,1,0.6,2.1,0.6,3.2v0
				c0,0-1.5,0-1.5,0.1c0.2,0-1.1,0.1-0.9,0.1c0.4,0.1,0.8,0.3,1.2,0.5c0,0,0,0,0,0c0.2,0.1,0.3,0.2,0.5,0.3c0.6,0.4,1.2,1,1.6,1.6
				c0.7,1.1,1,2.3,0.7,3.5c-0.2,1.2-0.9,2.3-2,3C38.6,369.4,37.9,369.8,37,369.9c0,0.1,0.2,0.1,0.1,0.1c-0.1,0,0.2,0,0.1,0
				c-0.4,0.1-0.2,0.1-0.6,0.1C36.4,370,38.4,369.9,37,369.9z"/>
		</g>
	</g>
</g>
<g>
	<g>
		<path class="st0" d="M76.1,329.2c0,0.4,0,0.8,0,1.2c1.1-0.1,2.3-0.2,3.4-0.3c0.7,0,1.5-0.1,2.2-0.1c2.2,0,4.4,0.2,6.5,0.5
			c1.1,0.2,2.3,0.4,3.4,0.6c0-0.4,0-0.8,0.1-1.2c0.1-0.4,0.2-0.8,0.4-1.2c-1.2-0.3-2.4-0.5-3.6-0.6c-2.3-0.3-4.6-0.5-6.9-0.5
			c-0.8,0-1.6,0-2.4,0.1c-1.2,0.1-2.4,0.2-3.6,0.3C76,328.4,76.1,328.8,76.1,329.2z M58.6,413.2c1.1,0.6,2.1,1.1,3.2,1.6
			c2.8,1.2,5.7,2.2,8.8,2.9c1.2,0.3,2.4,0.5,3.6,0.7c0-0.4,0-0.8,0-1.3c0.1-0.4,0.2-0.8,0.3-1.1c-1.1-0.2-2.3-0.4-3.4-0.6
			c-2.9-0.7-5.7-1.6-8.3-2.7c-1.1-0.5-2.1-1-3.1-1.5c-0.1,0.4-0.3,0.8-0.5,1.1C59.2,412.6,58.9,413,58.6,413.2z M120.3,350.6
			c0.6,0.9,1.2,1.9,1.7,2.8c1.4,2.5,2.5,5.1,3.3,7.8c0.3,1,0.6,2.1,0.8,3.2c0.4-0.2,0.8-0.3,1.2-0.4c0.4-0.1,0.9-0.1,1.3-0.1
			c-0.3-1.1-0.5-2.3-0.9-3.4c-0.9-2.9-2-5.6-3.5-8.2c-0.6-1-1.2-2-1.8-3c-0.3,0.3-0.6,0.6-1,0.8
			C121.1,350.3,120.7,350.5,120.3,350.6z M101.3,334.3c1,0.5,2,1,3,1.5c2.6,1.4,4.9,3,7.2,4.9c0.9,0.7,1.7,1.5,2.5,2.3
			c0.2-0.4,0.5-0.7,0.8-1c0.3-0.3,0.6-0.5,1-0.7c-0.8-0.8-1.7-1.6-2.6-2.4c-2.3-1.9-4.9-3.7-7.6-5.2c-1.1-0.6-2.1-1.1-3.2-1.6
			c-0.1,0.4-0.2,0.8-0.4,1.2C101.8,333.7,101.6,334,101.3,334.3z M85,417.6c0,0.4,0,0.9-0.1,1.3c1.2-0.1,2.4-0.2,3.6-0.4
			c3.1-0.4,6.1-1.1,9-2.1c1.1-0.4,2.3-0.8,3.4-1.3c-0.3-0.3-0.5-0.7-0.6-1c-0.2-0.4-0.3-0.8-0.4-1.1c-1.1,0.4-2.1,0.8-3.2,1.2
			c-2.7,0.9-5.6,1.6-8.5,2c-1.1,0.2-2.3,0.3-3.4,0.3C84.9,416.9,85,417.2,85,417.6z M111.4,406.1c-0.9,0.7-1.8,1.4-2.7,2.1
			c0.3,0.2,0.6,0.5,0.9,0.8c0.3,0.3,0.5,0.7,0.6,1.1c1-0.7,1.9-1.4,2.8-2.2c2.3-1.9,4.5-4.1,6.4-6.4c0.7-0.9,1.4-1.9,2.1-2.8
			c-0.4-0.1-0.8-0.3-1.1-0.5c-0.4-0.2-0.7-0.5-1-0.8c-0.6,0.9-1.3,1.8-2,2.6C115.7,402.2,113.6,404.2,111.4,406.1z M124.2,388.7
			c0.4,0,0.8,0.1,1.2,0.3c0.4,0.2,0.8,0.3,1.2,0.6c0.4-1.1,0.8-2.2,1.2-3.3c0.9-2.8,1.5-5.7,1.8-8.7c0.1-1.1,0.2-2.3,0.2-3.5
			c-0.4,0.1-0.9,0.2-1.3,0.1c-0.4,0-0.8-0.1-1.2-0.2c0,1.1-0.1,2.2-0.2,3.3c-0.3,2.8-0.8,5.6-1.7,8.2
			C124.9,386.6,124.6,387.7,124.2,388.7z M39.7,394.9c0.6,1,1.2,2,1.8,3c1.7,2.5,3.6,4.8,5.7,7c0.8,0.8,1.7,1.6,2.6,2.4
			c0.2-0.4,0.4-0.7,0.7-1c0.3-0.3,0.6-0.6,0.9-0.8c-0.8-0.7-1.6-1.4-2.3-2.2l-0.1-0.1c-2-2-3.8-4.2-5.4-6.6c0,0,0,0,0,0
			c-0.6-0.9-1.2-1.9-1.7-2.8c0,0,0,0,0,0c0,0,0,0,0,0c-0.3,0.3-0.7,0.5-1,0.7C40.5,394.7,40.1,394.9,39.7,394.9z M34.9,369.9v3.5
			c0,3-0.5,12.1,0.9,12.7c0.3-0.1,0.7-0.3,1.1-0.4c0.4-0.1,0.8,0.2,1.2,0.2h0c-0.3-1.3-0.4-2.6-0.6-3.6c-0.5-2.7-0.6-6-0.6-8.9v-3.4
			c0,0-0.1,0-0.1,0c-0.1,0-0.1,0-0.2,0c-0.4,0.1-0.7,0.1-1.1,0.1C35.3,370,35.6,369.9,34.9,369.9z M36.9,359.8
			c0.2,0,0.3,0.1,0.5,0.1c0.4,0.1,0.8,0.3,1.2,0.5c0,0,0.1,0,0.1,0c0.2,0.1,0.5,0.2,0.6,0.3c0-0.1,0.4-0.2,0.4-0.3v0c0-1,0-2,1.4-3
			v0c0,0-0.5-0.1-0.5-0.1c0-0.1-0.3-0.2-0.3-0.3c1.1-2.5,2.9-4.9,3.5-7.2v0c2.1-0.9,1.4-1.7,2.4-2.6c0,0,0.4-0.1,0.4-0.1v0
			c0,0-0.7-0.1-0.8-0.1c-0.3-0.1-1.1-0.3-1.4-0.5c-0.3-0.2-0.8-0.5-1-0.8C42.4,346.7,37,357.5,36.9,359.8L36.9,359.8
			C37,359.8,36.9,359.8,36.9,359.8z M55.5,338.2c2.4-1.6,5-3,7.7-4.2c0,0,0,0,0.1,0c1-0.5,2.1-0.9,3.2-1.2c0,0,0.1,0,0.2,0
			c-0.2-0.3-0.1-0.7-0.3-1c-0.2-0.4-0.3-1.2-0.5-1.1c-1.1,0.4-2.6,0.8-3.6,1.2c0,0-0.1,0-0.2,0.1c-2.8,1.2-5.6,2.7-8.1,4.4
			c0,0,0,0,0,0C53,336.9,54.6,338.8,55.5,338.2z"/>
	</g>
</g>
<g>
	<path class="st0" d="M60.8,373.1c0-10.6,9-19.2,20.1-19.2c11.1,0,20.1,8.6,20.1,19.2s-9,19.2-20.1,19.2
		C69.8,392.2,60.8,383.6,60.8,373.1z M62.8,373.1c0,9.5,8.1,17.3,18.1,17.3c10,0,18.1-7.7,18.1-17.3c0-9.5-8.1-17.3-18.1-17.3
		C70.9,355.8,62.8,363.6,62.8,373.1z"/>
</g>
<g>
	<path class="st0" d="M55.4,373.4c0-13.4,11.4-24.2,25.4-24.2s25.4,10.9,25.4,24.2c0,13.4-11.4,24.2-25.4,24.2
		S55.4,386.8,55.4,373.4z M57.6,373.4c0,12.2,10.4,22.2,23.2,22.2s23.2-9.9,23.2-22.2s-10.4-22.2-23.2-22.2S57.6,361.2,57.6,373.4z"
		/>
</g>
<g>
	<path class="st0" d="M324.8,344.2c-1.7-1.7-2.6-3.9-2.6-6.2c0-0.8,0-1.6,0-2.5c0-8.3-2.1-19.4-4-26.4c-0.2-0.9,0-1.9,0.7-2.6
		l159.9-152.7c0.1-0.1,0.1-0.4,0-0.5l-64.1-61.2c-3.5,3.4-152.2,145.3-160.2,152.9c-0.4,0.4-1.1,0.6-1.7,0.4
		c-8.2-2.6-16.5-3.6-28.8-3.6c-2.8,0-5.6,0.1-8.3,0.3c-6,0.5-11.6-3.2-13.2-8.8c-0.7-2.4-0.3-4.9,1.1-7c1.4-2.1,3.7-3.5,6.3-3.9
		c10.7-1.5,19.9-2.4,27.3-2.8c0.7,0,1.4,0.3,1.8,0.9c0.4,0.6,0.3,1.4-0.1,1.9c-3.1,4.2-1.6,9.6,1.7,12.4c4.1,3.5,10.5,3.2,14.2-0.8
		c2.7-2.9,3.3-7.1,1.6-10.6c-0.4-0.8-0.3-1.7,0.2-2.3c0.5-0.7,1.3-1,2.2-0.9c5.2,0.6,10.4,1.4,15.5,2.6C318.1,181,413,90.4,413,90.4
		c0.9-0.9,2.4-0.9,3.3,0l64.2,61.3c1.1,1.1,1.1,2.8,0,3.8L320.7,308.2c-0.1,0.1-0.1,0.2-0.1,0.4c1.9,7.1,4.1,18.4,4.1,27
		c0,0.9,0,1.7,0,2.5c0,1.7,0.6,3.3,1.9,4.5c1.2,1.2,2.9,1.9,4.7,1.9h0.7c3.5,0,41.8-0.7,42.2-0.7c0,0,0,0,0,0c0.7,0,1.2,0.5,1.2,1.1
		c0,0.6-0.5,1.2-1.2,1.2c-1.6,0-38.7,0.7-42.2,0.7h-0.7C328.7,346.8,326.5,345.9,324.8,344.2z M258.6,222.7c2.2,4.4,1.4,9.5-2,13.1
		c-4.6,4.9-12.5,5.3-17.7,0.9c-4.4-3.7-5.4-10-2.6-14.6c-7.2,0.4-15.9,1.3-26.1,2.7c-1.9,0.3-3.6,1.3-4.6,2.8
		c-1,1.5-1.3,3.3-0.8,5.1c1.3,4.5,5.8,7.5,10.7,7.1c2.8-0.2,5.7-0.3,8.5-0.3c12.3,0,20.8,1,29.1,3.6c2.1-2,9.1-8.7,19.1-18.2
		C267.7,223.9,263.2,223.1,258.6,222.7z"/>
</g>
<g>
	<g>
		<path class="st0" d="M124.6,446.4c-2.6-2.6-2.4-6.7,0.4-9.2c2.7-2.4,7.1-2.3,9.6,0.3v0c2.6,2.6,2.4,6.7-0.4,9.2
			c-1.3,1.2-3,1.7-4.6,1.7C127.8,448.5,126,447.8,124.6,446.4z M126.6,438.9c-1.8,1.6-1.9,4.3-0.2,6c1.7,1.7,4.5,1.8,6.3,0.2
			c1.8-1.6,1.9-4.3,0.2-6v0c-0.9-0.9-2.1-1.4-3.3-1.4C128.5,437.7,127.4,438.1,126.6,438.9z"/>
	</g>
	<g>
		<path class="st0" d="M135.9,451.8l-0.7-0.2l-0.2-1.4l0.5-0.3c0.7-0.9,5.9-7.2,3.2-12.2c-1.6-2.9-4-4.7-7-5.3
			c-2.9-0.6-6,0.2-8.5,2.2c-2.9,2.3-4.3,5.9-3.5,9.4c0.2,0.8-0.1,1.7-0.8,2.3c-0.7,0.6-1.6,0.8-2.5,0.6c-36.8-10-66.4-20.7-83.5-30
			c-5-2.7-8.1-7.9-8.2-13.4c-0.1-8.1,0-15.7,0-23.8l0-0.5c0.1-12.5,0.1-25.5-0.1-41.6c0-14.9-0.1-26.8-0.2-38.3l-0.1-8.8
			c0-4.5-0.1-9.1-0.1-14c0-6.1,3.7-11.7,9.5-14.2v0c0.6-0.3,1.3-0.5,1.9-0.7c7-2.1,14.8-4.3,23.1-6.6c6.6-1.8,13.6-1.1,19.7,1.9
			c14.2,7,38.9,19.7,49.9,25.6c5.8,3.1,8.2,9.9,5.5,15.6c-5.4,11.9-8.2,24.5-8.2,37.6c0,29.6,14.2,56.8,38.9,74.7
			c4.3,3.1,5.4,8.8,2.8,13.2l-12.6,21.2c-3,5-8.4,7.9-14.2,7.9C139.1,452.5,137.5,452.3,135.9,451.8z M59.4,257
			c-8.3,2.3-16,4.5-23,6.6c-0.6,0.2-1.1,0.4-1.6,0.6c-5,2.2-8.2,7-8.2,12.2c0,4.9,0,9.5,0.1,14l0.1,8.8c0.1,11.5,0.2,23.5,0.2,38.3
			c0.3,16.2,0.2,29.1,0.1,41.6l0,0.5c0,8.1-0.1,15.7,0,23.7c0,4.8,2.7,9.2,7,11.5c16.9,9.2,46.4,19.8,83,29.8c0.1,0,0.3,0,0.3-0.1
			c0.1-0.1,0.1-0.2,0.1-0.2c-0.9-4.3,0.7-8.8,4.3-11.6c3-2.4,6.8-3.3,10.4-2.6c3.6,0.7,6.7,3,8.5,6.5c2.8,5.1-0.6,10.9-2.5,13.4
			c5.8,0.9,11.6-1.6,14.5-6.6l12.6-21.2c2.1-3.5,1.2-8-2.2-10.4c-25.3-18.3-39.8-46.2-39.8-76.5c0-13.4,2.8-26.3,8.4-38.5
			c2.2-4.7,0.2-10.2-4.6-12.8c-11-5.9-35.6-18.6-49.8-25.6c-3.5-1.7-7.4-2.6-11.3-2.6C64,256.1,61.7,256.4,59.4,257z"/>
	</g>
</g>
<g>
	<g>
		<path class="st0" d="M246.6,467.6c-1.8-0.4-3.3-1.4-4.2-2.9c-0.9-1.5-1.2-3.2-0.8-4.9c0.4-1.7,1.5-3.1,3.1-4
			c1.5-0.9,3.4-1.2,5.1-0.8c1.8,0.4,3.3,1.4,4.2,2.9c0.9,1.5,1.2,3.2,0.8,4.9c-0.4,1.7-1.5,3.1-3.1,4c-1.1,0.6-2.3,1-3.5,1
			C247.7,467.8,247.2,467.7,246.6,467.6z M245.9,457.7c-1,0.6-1.7,1.5-2,2.6c-0.3,1.1-0.1,2.3,0.5,3.2c0.6,1,1.6,1.7,2.8,1.9
			c2.4,0.6,4.8-0.9,5.4-3.2c0.6-2.3-0.9-4.6-3.3-5.2c-0.4-0.1-0.7-0.1-1.1-0.1C247.4,457,246.6,457.2,245.9,457.7z"/>
	</g>
</g>
<g>
	<g>
		<path class="st0" d="M28.2,337.4c-2.1-3-1.2-7,1.9-9c3.1-2,7.4-1.1,9.4,1.8l0,0c2.1,3,1.2,7-1.9,9c-1.2,0.7-2.4,1.1-3.7,1.1
			C31.7,340.4,29.5,339.3,28.2,337.4z M37.6,331.5c-1.4-2-4.1-2.5-6.2-1.2c-2.1,1.3-2.6,4-1.3,5.9c1.4,2,4.1,2.5,6.2,1.2
			C38.4,336.1,39,333.5,37.6,331.5L37.6,331.5z"/>
	</g>
	<g>
		<path class="st0" d="M33.9,345.7c2.6,0,5.3-0.8,7.5-2.4c5.5-3.9,6.6-11.4,2.4-16.6c-4.1-5.2-12-6.3-17.4-2.3
			c-0.8,0.6-1.6,1.3-2.2,2l1.8,1.4c0.5-0.6,1.1-1.2,1.8-1.6c4.5-3.2,10.8-2.4,14.2,1.9c3.4,4.3,2.5,10.3-2,13.5
			c-4,2.9-9.7,2.5-13.3-0.9l-1.6,1.6C27.5,344.6,30.7,345.7,33.9,345.7z"/>
	</g>
</g>
<g>
	<path class="st0" d="M298.6,449.6c-3.4-0.5-6.4-2.3-8.4-4.9l-9.4-12.3c-4.2-5.5-2.9-13.2,2.8-17.2l23.7-16.5
		c2.8-1.9,6.2-2.7,9.6-2.2c3.4,0.5,6.4,2.3,8.4,4.9l9.4,12.3c4.2,5.5,2.9,13.2-2.8,17.2l-23.7,16.5c-2.2,1.5-4.9,2.4-7.6,2.4
		C299.9,449.8,299.3,449.7,298.6,449.6z M308.7,400.5L285,417c-4.7,3.3-5.7,9.6-2.3,14.1l9.4,12.3c1.7,2.2,4.1,3.6,6.9,4
		c2.8,0.4,5.6-0.2,7.9-1.8l23.7-16.5c4.7-3.3,5.7-9.6,2.3-14.1l-9.4-12.3c-1.7-2.2-4.1-3.6-6.9-4c-0.6-0.1-1.1-0.1-1.7-0.1
		C312.7,398.6,310.6,399.3,308.7,400.5z"/>
</g>
<g>
	<g>
		<g>
			<path class="st0" d="M314.3,420.8l-2.8-6.2l3.4-6l7-1.2l5.4,4.5l-0.3,6.8l-5.7,4L314.3,420.8z M325.8,412.3l-4.4-3.6l-5.7,1
				l-2.7,4.9l2.3,5.1l5.6,1.5l4.7-3.3L325.8,412.3z"/>
		</g>
		<g>
			<path class="st0" d="M315.7,414.9c0-2.2,1.8-3.9,4.1-3.9c2.3,0,4.1,1.8,4.1,3.9c0,2.2-1.8,3.9-4.1,3.9
				C317.5,418.9,315.7,417.1,315.7,414.9z M317.1,414.9c0,1.4,1.2,2.6,2.7,2.6c1.5,0,2.7-1.2,2.7-2.6c0-1.4-1.2-2.6-2.7-2.6
				C318.3,412.3,317.1,413.5,317.1,414.9z"/>
		</g>
	</g>
	<g>
		<path class="st0" d="M317.4,414.9c0-1.2,1.1-2.3,2.4-2.3c1.3,0,2.4,1,2.4,2.3c0,1.2-1.1,2.3-2.4,2.3
			C318.5,417.2,317.4,416.2,317.4,414.9z M318.3,414.9c0,0.8,0.7,1.5,1.5,1.5c0.8,0,1.5-0.7,1.5-1.5c0-0.8-0.7-1.5-1.5-1.5
			C318.9,413.5,318.3,414.1,318.3,414.9z"/>
	</g>
</g>
<g>
	<g>
		<g>
			<path class="st0" d="M336.5,330.9l-3.6-8l4.3-7.7l9-1.6l6.9,5.7l-0.4,8.7l-7.4,5.2L336.5,330.9z M351.3,320l-5.6-4.7l-7.3,1.3
				l-3.5,6.3l3,6.5l7.2,1.9l6-4.2L351.3,320z"/>
		</g>
		<g>
			<path class="st0" d="M338.3,323.3c0-2.8,2.4-5,5.3-5c2.9,0,5.3,2.3,5.3,5c0,2.8-2.4,5-5.3,5C340.7,328.4,338.3,326.1,338.3,323.3
				z M340.1,323.3c0,1.8,1.6,3.3,3.5,3.3s3.5-1.5,3.5-3.3c0-1.8-1.6-3.3-3.5-3.3S340.1,321.5,340.1,323.3z"/>
		</g>
	</g>
	<g>
		<path class="st0" d="M340.6,323.3c0-1.6,1.4-2.9,3-2.9s3,1.3,3,2.9c0,1.6-1.4,2.9-3,2.9S340.6,324.9,340.6,323.3z M341.6,323.3
			c0,1,0.9,1.9,2,1.9c1.1,0,2-0.8,2-1.9c0-1-0.9-1.9-2-1.9C342.5,321.5,341.6,322.3,341.6,323.3z"/>
	</g>
</g>
<g>
	<path class="st0" d="M81,435.3c29.5,0,56.2-20,61.6-46.6l-2.3-0.4c-5.3,26.5-32.7,46.1-62.2,44.7l-0.1,2.3
		C79,435.2,80,435.3,81,435.3z"/>
</g>
<g>
	<path class="st0" d="M123.7,332.5l1.7-1.6c-18.9-18.1-37.6-17.4-38.4-17.4l0.1,2.3C87.2,315.7,105.6,315.2,123.7,332.5z"/>
</g>
<g>
	<polygon class="st0" points="190.2,267.3 192.8,266 188.8,258.7 186.1,260 	"/>
</g>
</svg>
